<?xml version="1.0" encoding="utf-8"?>
<svg version="1.1" xmlns:xlink="http://www.w3.org/1999/xlink" width="32px" height="32px" xmlns="http://www.w3.org/2000/svg">
  <g transform="matrix(1 0 0 1 -184 -237 )">
    <path d="M 200 237  C 208.96 237  216 244.04  216 253  C 216 261.96  208.96 269  200 269  C 191.04 269  184 261.96  184 253  C 184 244.04  191.04 237  200 237  Z " fill-rule="nonzero" fill="#f7f6f6" stroke="none" fill-opacity="0" />
    <path d="M 200 237.5  C 208.68 237.5  215.5 244.32  215.5 253  C 215.5 261.68  208.68 268.5  200 268.5  C 191.32 268.5  184.5 261.68  184.5 253  C 184.5 244.32  191.32 237.5  200 237.5  Z " stroke-width="1" stroke="#9d2449" fill="none" />
  </g>
</svg>