<?xml version="1.0" encoding="utf-8"?>
<svg version="1.1" xmlns:xlink="http://www.w3.org/1999/xlink" width="7px" height="4px" xmlns="http://www.w3.org/2000/svg">
  <defs>
    <mask fill="white" id="clip535">
      <path d="M 3.20833333333333 0.170905903886335  C 3.00443319903128 0.170905903886335  2.8153316517175 0.240434537255014  2.70958333333333 0.354285714285714  C 2.70958333333333 0.354285714285714  0.239166666666667 3.42857142857143  0.239166666666667 3.42857142857143  C 0.187955389745231 3.48648897882805  0.160994476035363 3.55219050807937  0.160994476035363 3.61907062769622  C 0.160994476035363 3.82783156599621  0.418270786937688 3.99770560657248  0.737916666666667 4  C 0.737916666666667 4  6.26208333333333 4  6.26208333333333 4  C 6.58172921306231 3.99770560657248  6.83900552396464 3.82783156599621  6.83900552396464 3.61907062769622  C 6.83900552396464 3.55219050807937  6.81204461025477 3.48648897882805  6.76083333333333 3.42857142857143  C 6.76083333333333 3.42857142857143  4.29041666666667 0.354285714285714  4.29041666666667 0.354285714285714  C 4.1846683482825 0.240434537255014  3.41223346763539 0.170905903886335  3.20833333333333 0.170905903886335  Z " fill-rule="evenodd" />
    </mask>
  </defs>
  <g transform="matrix(1 0 0 1 -913 -99 )">
    <path d="M 3.20833333333333 0.170905903886335  C 3.00443319903128 0.170905903886335  2.8153316517175 0.240434537255014  2.70958333333333 0.354285714285714  C 2.70958333333333 0.354285714285714  0.239166666666667 3.42857142857143  0.239166666666667 3.42857142857143  C 0.187955389745231 3.48648897882805  0.160994476035363 3.55219050807937  0.160994476035363 3.61907062769622  C 0.160994476035363 3.82783156599621  0.418270786937688 3.99770560657248  0.737916666666667 4  C 0.737916666666667 4  6.26208333333333 4  6.26208333333333 4  C 6.58172921306231 3.99770560657248  6.83900552396464 3.82783156599621  6.83900552396464 3.61907062769622  C 6.83900552396464 3.55219050807937  6.81204461025477 3.48648897882805  6.76083333333333 3.42857142857143  C 6.76083333333333 3.42857142857143  4.29041666666667 0.354285714285714  4.29041666666667 0.354285714285714  C 4.1846683482825 0.240434537255014  3.41223346763539 0.170905903886335  3.20833333333333 0.170905903886335  Z " fill-rule="nonzero" fill="#ffffff" stroke="none" transform="matrix(1 0 0 1 913 99 )" />
    <path d="M 3.20833333333333 0.170905903886335  C 3.00443319903128 0.170905903886335  2.8153316517175 0.240434537255014  2.70958333333333 0.354285714285714  C 2.70958333333333 0.354285714285714  0.239166666666667 3.42857142857143  0.239166666666667 3.42857142857143  C 0.187955389745231 3.48648897882805  0.160994476035363 3.55219050807937  0.160994476035363 3.61907062769622  C 0.160994476035363 3.82783156599621  0.418270786937688 3.99770560657248  0.737916666666667 4  C 0.737916666666667 4  6.26208333333333 4  6.26208333333333 4  C 6.58172921306231 3.99770560657248  6.83900552396464 3.82783156599621  6.83900552396464 3.61907062769622  C 6.83900552396464 3.55219050807937  6.81204461025477 3.48648897882805  6.76083333333333 3.42857142857143  C 6.76083333333333 3.42857142857143  4.29041666666667 0.354285714285714  4.29041666666667 0.354285714285714  C 4.1846683482825 0.240434537255014  3.41223346763539 0.170905903886335  3.20833333333333 0.170905903886335  Z " stroke-width="4" stroke="#ffffff" fill="none" transform="matrix(1 0 0 1 913 99 )" mask="url(#clip535)" />
  </g>
</svg>