<?xml version="1.0" encoding="utf-8"?>
<svg version="1.1" xmlns:xlink="http://www.w3.org/1999/xlink" width="12px" height="9px" xmlns="http://www.w3.org/2000/svg">
  <g transform="matrix(1 0 0 1 -1066 -1122 )">
    <path d="M 11.7171717171717 6.72727272727273  C 11.9057239057239 6.86868686868687  12 7.04040404040404  12 7.24242424242424  C 12 7.44444444444445  11.9057239057239 7.61616161616162  11.7171717171717 7.75757575757576  L 10.3434343434343 8.78787878787879  C 10.1548821548822 8.92929292929293  9.92592592592593 9  9.65656565656566 9  C 9.38720538720539 9  9.15824915824916 8.92929292929293  8.96969696969697 8.78787878787879  L 6 6.56060606060606  L 3.03030303030303 8.78787878787879  C 2.84175084175084 8.92929292929293  2.61279461279461 9  2.34343434343434 9  C 2.07407407407407 9  1.84511784511785 8.92929292929293  1.65656565656566 8.78787878787879  L 0.282828282828283 7.75757575757576  C 0.0942760942760944 7.61616161616162  0 7.44444444444445  0 7.24242424242424  C 0 7.04040404040404  0.0942760942760944 6.86868686868687  0.282828282828283 6.72727272727273  L 3.25252525252525 4.5  L 0.282828282828283 2.27272727272727  C 0.0942760942760944 2.13131313131313  0 1.95959595959596  0 1.75757575757576  C 0 1.55555555555556  0.0942760942760944 1.38383838383838  0.282828282828283 1.24242424242424  L 1.65656565656566 0.212121212121212  C 1.84511784511785 0.0707070707070704  2.07407407407407 0  2.34343434343434 0  C 2.61279461279461 0  2.84175084175084 0.0707070707070704  3.03030303030303 0.212121212121212  L 6 2.43939393939394  L 8.96969696969697 0.212121212121212  C 9.15824915824916 0.0707070707070704  9.38720538720539 0  9.65656565656566 0  C 9.92592592592593 0  10.1548821548822 0.0707070707070704  10.3434343434343 0.212121212121212  L 11.7171717171717 1.24242424242424  C 11.9057239057239 1.38383838383838  12 1.55555555555556  12 1.75757575757576  C 12 1.95959595959596  11.9057239057239 2.13131313131313  11.7171717171717 2.27272727272727  L 8.74747474747475 4.5  L 11.7171717171717 6.72727272727273  Z " fill-rule="nonzero" fill="#8c8c8c" stroke="none" transform="matrix(1 0 0 1 1066 1122 )" />
  </g>
</svg>