<?xml version="1.0" encoding="utf-8"?>
<svg version="1.1" xmlns:xlink="http://www.w3.org/1999/xlink" width="8px" height="3px" xmlns="http://www.w3.org/2000/svg">
  <g transform="matrix(1 0 0 1 -1002 -627 )">
    <path d="M 7.8515625 0.0989583333333335  C 7.95052083333333 0.164930555555555  8 0.243055555555555  8 0.333333333333333  C 8 0.423611111111111  7.95052083333333 0.501736111111111  7.8515625 0.567708333333333  L 4.3515625 2.90104166666667  C 4.25260416666667 2.96701388888889  4.13541666666667 3  4 3  C 3.86458333333333 3  3.74739583333333 2.96701388888889  3.6484375 2.90104166666667  L 0.1484375 0.567708333333333  C 0.0494791666666667 0.501736111111111  0 0.423611111111111  0 0.333333333333333  C 0 0.243055555555555  0.0494791666666667 0.164930555555555  0.1484375 0.0989583333333335  C 0.247395833333333 0.0329861111111107  0.364583333333333 0  0.5 0  L 7.5 0  C 7.63541666666667 0  7.75260416666667 0.0329861111111107  7.8515625 0.0989583333333335  Z " fill-rule="nonzero" fill="#169bd5" stroke="none" transform="matrix(1 0 0 1 1002 627 )" />
  </g>
</svg>