<?xml version="1.0" encoding="utf-8"?>
<svg version="1.1" xmlns:xlink="http://www.w3.org/1999/xlink" width="8px" height="3px" xmlns="http://www.w3.org/2000/svg">
  <g transform="matrix(1 0 0 1 -1002 -623 )">
    <path d="M 7.8515625 2.43229166666667  C 7.95052083333333 2.49826388888889  8 2.57638888888889  8 2.66666666666667  C 8 2.75694444444444  7.95052083333333 2.83506944444444  7.8515625 2.90104166666667  C 7.75260416666667 2.96701388888889  7.63541666666667 3  7.5 3  L 0.5 3  C 0.364583333333333 3  0.247395833333333 2.96701388888889  0.1484375 2.90104166666667  C 0.0494791666666667 2.83506944444444  0 2.75694444444444  0 2.66666666666667  C 0 2.57638888888889  0.0494791666666667 2.49826388888889  0.1484375 2.43229166666667  L 3.6484375 0.0989583333333335  C 3.74739583333333 0.0329861111111107  3.86458333333333 0  4 0  C 4.13541666666667 0  4.25260416666667 0.0329861111111107  4.3515625 0.0989583333333335  L 7.8515625 2.43229166666667  Z " fill-rule="nonzero" fill="#169bd5" stroke="none" transform="matrix(1 0 0 1 1002 623 )" />
  </g>
</svg>