<?xml version="1.0" encoding="utf-8"?>
<svg version="1.1" xmlns:xlink="http://www.w3.org/1999/xlink" width="20px" height="20px" viewBox="115 1835  20 20" xmlns="http://www.w3.org/2000/svg">
  <path d="M 115.5 1837  A 1.5 1.5 0 0 1 117 1835.5 L 133 1835.5  A 1.5 1.5 0 0 1 134.5 1837 L 134.5 1853  A 1.5 1.5 0 0 1 133 1854.5 L 117 1854.5  A 1.5 1.5 0 0 1 115.5 1853 L 115.5 1837  Z " fill-rule="nonzero" fill="#f0f0f0" stroke="none" />
  <path d="M 115.5 1837  A 1.5 1.5 0 0 1 117 1835.5 L 133 1835.5  A 1.5 1.5 0 0 1 134.5 1837 L 134.5 1853  A 1.5 1.5 0 0 1 133 1854.5 L 117 1854.5  A 1.5 1.5 0 0 1 115.5 1853 L 115.5 1837  Z " stroke-width="1" stroke="#0043f0" fill="none" />
  <path d="M 119.285714285714 1845  L 123.571428571429 1849.28571428571  " stroke-width="4.28571428571429" stroke="#0043f0" fill="none" />
  <path d="M 123.571428571429 1849.28571428571  L 130.714285714286 1839.28571428571  " stroke-width="4.28571428571429" stroke="#0043f0" fill="none" />
</svg>