<?xml version="1.0" encoding="utf-8"?>
<svg version="1.1" xmlns:xlink="http://www.w3.org/1999/xlink" width="23px" height="23px" xmlns="http://www.w3.org/2000/svg">
  <g transform="matrix(1 0 0 1 -266 -1644 )">
    <path d="M 13.0423177083333 15.7076822916667  C 13.1321614583333 15.7975260416667  13.1770833333333 15.9123263888889  13.1770833333333 16.0520833333333  L 13.1770833333333 18.4479166666667  C 13.1770833333333 18.5876736111111  13.1321614583333 18.7024739583333  13.0423177083333 18.7923177083333  C 12.9524739583333 18.8821614583333  12.8376736111111 18.9270833333333  12.6979166666667 18.9270833333333  L 10.3020833333333 18.9270833333333  C 10.1623263888889 18.9270833333333  10.0475260416667 18.8821614583333  9.95768229166667 18.7923177083333  C 9.86783854166667 18.7024739583333  9.82291666666667 18.5876736111111  9.82291666666667 18.4479166666667  L 9.82291666666667 16.0520833333333  C 9.82291666666667 15.9123263888889  9.86783854166667 15.7975260416667  9.95768229166667 15.7076822916667  C 10.0475260416667 15.6178385416667  10.1623263888889 15.5729166666667  10.3020833333333 15.5729166666667  L 12.6979166666667 15.5729166666667  C 12.8376736111111 15.5729166666667  12.9524739583333 15.6178385416667  13.0423177083333 15.7076822916667  Z M 15.3707682291667 5.4130859375  C 16.4638671875 6.30653211805555  17.0104166666667 7.37717013888889  17.0104166666667 8.625  C 17.0104166666667 9.12413194444444  16.935546875 9.57335069444444  16.7858072916667 9.97265625  C 16.6360677083333 10.3719618055556  16.4089626736111 10.7163628472222  16.1044921875 11.005859375  C 15.8000217013889 11.2953559027778  15.5404730902778 11.5149739583333  15.3258463541667 11.6647135416667  C 15.1112196180556 11.814453125  14.8142361111111 11.994140625  14.4348958333333 12.2037760416667  C 14.1154513888889 12.3834635416667  13.8833550347222 12.5232204861111  13.7386067708333 12.623046875  C 13.5938585069444 12.7228732638889  13.4640842013889 12.8426649305556  13.3492838541667 12.982421875  C 13.2344835069444 13.1221788194444  13.1770833333333 13.2669270833333  13.1770833333333 13.4166666666667  L 13.1770833333333 13.8958333333333  C 13.1770833333333 14.0355902777778  13.1321614583333 14.150390625  13.0423177083333 14.240234375  C 12.9524739583333 14.330078125  12.8376736111111 14.375  12.6979166666667 14.375  L 10.3020833333333 14.375  C 10.1623263888889 14.375  10.0475260416667 14.330078125  9.95768229166667 14.240234375  C 9.86783854166667 14.150390625  9.82291666666667 14.0355902777778  9.82291666666667 13.8958333333333  L 9.82291666666667 12.8776041666667  C 9.82291666666667 12.5282118055556  9.87532552083333 12.2062717013889  9.98014322916667 11.9117838541667  C 10.0849609375 11.6172960069444  10.2047526041667 11.3802083333333  10.3395182291667 11.2005208333333  C 10.4742838541667 11.0208333333333  10.6689453125 10.8436414930556  10.9235026041667 10.6689453125  C 11.1780598958333 10.4942491319444  11.3827039930556 10.3669704861111  11.5374348958333 10.287109375  C 11.6921657986111 10.2072482638889  11.9142795138889 10.1024305555556  12.2037760416667 9.97265625  C 12.7328559027778 9.72309027777778  13.1072048611111 9.50846354166667  13.3268229166667 9.32877604166667  C 13.5464409722222 9.14908854166667  13.65625 8.90451388888889  13.65625 8.59505208333333  C 13.65625 8.17578125  13.4391276041667 7.81890190972222  13.0048828125 7.5244140625  C 12.5706380208333 7.22992621527778  12.0939670138889 7.08268229166667  11.5748697916667 7.08268229166667  C 11.0158420138889 7.08268229166667  10.5416666666667 7.21744791666667  10.15234375 7.48697916666667  C 9.86284722222222 7.68663194444444  9.46354166666667 8.10091145833333  8.95442708333333 8.72981770833333  C 8.86458333333333 8.849609375  8.73980034722222 8.90950520833333  8.580078125 8.90950520833333  C 8.47026909722222 8.90950520833333  8.37543402777778 8.87955729166666  8.29557291666667 8.81966145833333  L 6.67838541666667 7.591796875  C 6.57855902777778 7.52191840277778  6.51866319444444 7.42209201388889  6.49869791666667 7.29231770833333  C 6.47873263888889 7.16254340277778  6.50368923611111 7.04774305555555  6.57356770833333 6.94791666666667  C 7.79144965277778 5.03125  9.53342013888889 4.07291666666667  11.7994791666667 4.07291666666667  C 13.0872395833333 4.07291666666667  14.2776692708333 4.51963975694444  15.3707682291667 5.4130859375  Z M 15.2210286458333 2.68033854166667  C 14.0380859375 2.17122395833333  12.7977430555556 1.91666666666667  11.5 1.91666666666667  C 10.2022569444444 1.91666666666667  8.9619140625 2.17122395833333  7.77897135416667 2.68033854166667  C 6.59602864583333 3.189453125  5.57779947916667 3.87076822916667  4.72428385416667 4.72428385416667  C 3.87076822916667 5.57779947916667  3.189453125 6.59602864583333  2.68033854166667 7.77897135416667  C 2.17122395833333 8.9619140625  1.91666666666667 10.2022569444444  1.91666666666667 11.5  C 1.91666666666667 12.7977430555556  2.17122395833333 14.0380859375  2.68033854166667 15.2210286458333  C 3.189453125 16.4039713541667  3.87076822916667 17.4222005208333  4.72428385416667 18.2757161458333  C 5.57779947916667 19.1292317708333  6.59602864583333 19.810546875  7.77897135416667 20.3196614583333  C 8.9619140625 20.8287760416667  10.2022569444444 21.0833333333333  11.5 21.0833333333333  C 12.7977430555556 21.0833333333333  14.0380859375 20.8287760416667  15.2210286458333 20.3196614583333  C 16.4039713541667 19.810546875  17.4222005208333 19.1292317708333  18.2757161458333 18.2757161458333  C 19.1292317708333 17.4222005208333  19.810546875 16.4039713541667  20.3196614583333 15.2210286458333  C 20.8287760416667 14.0380859375  21.0833333333333 12.7977430555556  21.0833333333333 11.5  C 21.0833333333333 10.2022569444444  20.8287760416667 8.9619140625  20.3196614583333 7.77897135416667  C 19.810546875 6.59602864583333  19.1292317708333 5.57779947916667  18.2757161458333 4.72428385416667  C 17.4222005208333 3.87076822916667  16.4039713541667 3.189453125  15.2210286458333 2.68033854166667  Z M 21.4576822916667 5.7275390625  C 22.4858940972222 7.48947482638889  23 9.41362847222222  23 11.5  C 23 13.5863715277778  22.4858940972222 15.5105251736111  21.4576822916667 17.2724609375  C 20.4294704861111 19.0343967013889  19.0343967013889 20.4294704861111  17.2724609375 21.4576822916667  C 15.5105251736111 22.4858940972222  13.5863715277778 23  11.5 23  C 9.41362847222222 23  7.48947482638889 22.4858940972222  5.7275390625 21.4576822916667  C 3.96560329861111 20.4294704861111  2.57052951388889 19.0343967013889  1.54231770833333 17.2724609375  C 0.514105902777778 15.5105251736111  0 13.5863715277778  0 11.5  C 0 9.41362847222222  0.514105902777778 7.48947482638889  1.54231770833333 5.7275390625  C 2.57052951388889 3.96560329861111  3.96560329861111 2.57052951388889  5.7275390625 1.54231770833333  C 7.48947482638889 0.514105902777776  9.41362847222222 0  11.5 0  C 13.5863715277778 0  15.5105251736111 0.514105902777776  17.2724609375 1.54231770833333  C 19.0343967013889 2.57052951388889  20.4294704861111 3.96560329861111  21.4576822916667 5.7275390625  Z " fill-rule="nonzero" fill="#000000" stroke="none" transform="matrix(1 0 0 1 266 1644 )" />
  </g>
</svg>