<?xml version="1.0" encoding="utf-8"?>
<svg version="1.1" xmlns:xlink="http://www.w3.org/1999/xlink" width="16px" height="16px" viewBox="19 177  16 16" xmlns="http://www.w3.org/2000/svg">
  <path d="M 27 177  C 31.48 177  35 180.52  35 185  C 35 189.48  31.48 193  27 193  C 22.52 193  19 189.48  19 185  C 19 180.52  22.52 177  27 177  Z " fill-rule="nonzero" fill="#f0f0f0" stroke="none" />
  <path d="M 27 177.5  C 31.2 177.5  34.5 180.8  34.5 185  C 34.5 189.2  31.2 192.5  27 192.5  C 22.8 192.5  19.5 189.2  19.5 185  C 19.5 180.8  22.8 177.5  27 177.5  Z " stroke-width="1" stroke="#0043f0" fill="none" />
  <path d="M 27 189  C 24.76 189  23 187.24  23 185  C 23 182.76  24.76 181  27 181  C 29.24 181  31 182.76  31 185  C 31 187.24  29.24 189  27 189  " fill-rule="nonzero" fill="#0043f0" stroke="none" />
</svg>