<?xml version="1.0" encoding="utf-8"?>
<svg version="1.1" xmlns:xlink="http://www.w3.org/1999/xlink" width="16px" height="16px" viewBox="19 227  16 16" xmlns="http://www.w3.org/2000/svg">
  <path d="M 27 227  C 31.48 227  35 230.52  35 235  C 35 239.48  31.48 243  27 243  C 22.52 243  19 239.48  19 235  C 19 230.52  22.52 227  27 227  Z " fill-rule="nonzero" fill="#ffffff" stroke="none" />
  <path d="M 27 227.5  C 31.2 227.5  34.5 230.8  34.5 235  C 34.5 239.2  31.2 242.5  27 242.5  C 22.8 242.5  19.5 239.2  19.5 235  C 19.5 230.8  22.8 227.5  27 227.5  Z " stroke-width="1" stroke="#0043f0" fill="none" />
  <path d="M 27 239  C 24.76 239  23 237.24  23 235  C 23 232.76  24.76 231  27 231  C 29.24 231  31 232.76  31 235  C 31 237.24  29.24 239  27 239  " fill-rule="nonzero" fill="#0043f0" stroke="none" />
</svg>