<?xml version="1.0" encoding="utf-8"?>
<svg version="1.1" xmlns:xlink="http://www.w3.org/1999/xlink" width="158px" height="125px" xmlns="http://www.w3.org/2000/svg">
  <defs>
    <mask fill="white" id="clip69">
      <path d="M 0 117.5  L 0 7.5  C 0 3.3  2.607 0  5.925 0  L 152.075 0  C 155.393 0  158 3.3  158 7.5  L 158 117.5  C 158 121.7  155.393 125  152.075 125  L 5.925 125  C 2.607 125  0 121.7  0 117.5  Z " fill-rule="evenodd" />
    </mask>
  </defs>
  <g transform="matrix(1 0 0 1 -219 -372 )">
    <path d="M 0 117.5  L 0 7.5  C 0 3.3  2.607 0  5.925 0  L 152.075 0  C 155.393 0  158 3.3  158 7.5  L 158 117.5  C 158 121.7  155.393 125  152.075 125  L 5.925 125  C 2.607 125  0 121.7  0 117.5  Z " fill-rule="nonzero" fill="#f2f2f2" stroke="none" transform="matrix(1 0 0 1 219 372 )" />
    <path d="M 0 117.5  L 0 7.5  C 0 3.3  2.607 0  5.925 0  L 152.075 0  C 155.393 0  158 3.3  158 7.5  L 158 117.5  C 158 121.7  155.393 125  152.075 125  L 5.925 125  C 2.607 125  0 121.7  0 117.5  Z " stroke-width="2" stroke="#797979" fill="none" transform="matrix(1 0 0 1 219 372 )" mask="url(#clip69)" />
  </g>
</svg>