<?xml version="1.0" encoding="utf-8"?>
<svg version="1.1" xmlns:xlink="http://www.w3.org/1999/xlink" width="176px" height="106px" xmlns="http://www.w3.org/2000/svg">
  <defs>
    <mask fill="white" id="clip114">
      <path d="M 0 99.64  L 0 6.36  C 0 2.7984  2.904 0  6.6 0  L 169.4 0  C 173.096 0  176 2.7984  176 6.36  L 176 99.64  C 176 103.2016  173.096 106  169.4 106  L 6.6 106  C 2.904 106  0 103.2016  0 99.64  Z " fill-rule="evenodd" />
    </mask>
  </defs>
  <g transform="matrix(1 0 0 1 -609 -521 )">
    <path d="M 0 99.64  L 0 6.36  C 0 2.7984  2.904 0  6.6 0  L 169.4 0  C 173.096 0  176 2.7984  176 6.36  L 176 99.64  C 176 103.2016  173.096 106  169.4 106  L 6.6 106  C 2.904 106  0 103.2016  0 99.64  Z " fill-rule="nonzero" fill="#f2f2f2" stroke="none" transform="matrix(1 0 0 1 609 521 )" />
    <path d="M 0 99.64  L 0 6.36  C 0 2.7984  2.904 0  6.6 0  L 169.4 0  C 173.096 0  176 2.7984  176 6.36  L 176 99.64  C 176 103.2016  173.096 106  169.4 106  L 6.6 106  C 2.904 106  0 103.2016  0 99.64  Z " stroke-width="2" stroke="#797979" fill="none" transform="matrix(1 0 0 1 609 521 )" mask="url(#clip114)" />
  </g>
</svg>