<?xml version="1.0" encoding="utf-8"?>
<svg version="1.1" xmlns:xlink="http://www.w3.org/1999/xlink" width="145px" height="116px" xmlns="http://www.w3.org/2000/svg">
  <defs>
    <mask fill="white" id="clip123">
      <path d="M 0 109.04  L 0 6.96  C 0 3.0624  2.3925 0  5.4375 0  L 139.5625 0  C 142.6075 0  145 3.0624  145 6.96  L 145 109.04  C 145 112.9376  142.6075 116  139.5625 116  L 5.4375 116  C 2.3925 116  0 112.9376  0 109.04  Z " fill-rule="evenodd" />
    </mask>
  </defs>
  <g transform="matrix(1 0 0 1 -804 -116 )">
    <path d="M 0 109.04  L 0 6.96  C 0 3.0624  2.3925 0  5.4375 0  L 139.5625 0  C 142.6075 0  145 3.0624  145 6.96  L 145 109.04  C 145 112.9376  142.6075 116  139.5625 116  L 5.4375 116  C 2.3925 116  0 112.9376  0 109.04  Z " fill-rule="nonzero" fill="#f2f2f2" stroke="none" transform="matrix(1 0 0 1 804 116 )" />
    <path d="M 0 109.04  L 0 6.96  C 0 3.0624  2.3925 0  5.4375 0  L 139.5625 0  C 142.6075 0  145 3.0624  145 6.96  L 145 109.04  C 145 112.9376  142.6075 116  139.5625 116  L 5.4375 116  C 2.3925 116  0 112.9376  0 109.04  Z " stroke-width="2" stroke="#797979" fill="none" transform="matrix(1 0 0 1 804 116 )" mask="url(#clip123)" />
  </g>
</svg>