<?xml version="1.0" encoding="utf-8"?>
<svg version="1.1" xmlns:xlink="http://www.w3.org/1999/xlink" width="158px" height="98px" xmlns="http://www.w3.org/2000/svg">
  <defs>
    <mask fill="white" id="clip223">
      <path d="M 0 92.12  L 0 5.88  C 0 2.5872  2.607 0  5.925 0  L 152.075 0  C 155.393 0  158 2.5872  158 5.88  L 158 92.12  C 158 95.4128  155.393 98  152.075 98  L 5.925 98  C 2.607 98  0 95.4128  0 92.12  Z " fill-rule="evenodd" />
    </mask>
  </defs>
  <g transform="matrix(1 0 0 1 -636 -256 )">
    <path d="M 0 92.12  L 0 5.88  C 0 2.5872  2.607 0  5.925 0  L 152.075 0  C 155.393 0  158 2.5872  158 5.88  L 158 92.12  C 158 95.4128  155.393 98  152.075 98  L 5.925 98  C 2.607 98  0 95.4128  0 92.12  Z " fill-rule="nonzero" fill="#f2f2f2" stroke="none" transform="matrix(1 0 0 1 636 256 )" />
    <path d="M 0 92.12  L 0 5.88  C 0 2.5872  2.607 0  5.925 0  L 152.075 0  C 155.393 0  158 2.5872  158 5.88  L 158 92.12  C 158 95.4128  155.393 98  152.075 98  L 5.925 98  C 2.607 98  0 95.4128  0 92.12  Z " stroke-width="2" stroke="#797979" fill="none" transform="matrix(1 0 0 1 636 256 )" mask="url(#clip223)" />
  </g>
</svg>