<?xml version="1.0" encoding="utf-8"?>
<svg version="1.1" xmlns:xlink="http://www.w3.org/1999/xlink" width="212px" height="125px" xmlns="http://www.w3.org/2000/svg">
  <defs>
    <mask fill="white" id="clip406">
      <path d="M 0 117.5  L 0 7.5  C 0 3.3  3.498 0  7.95 0  L 204.05 0  C 208.502 0  212 3.3  212 7.5  L 212 117.5  C 212 121.7  208.502 125  204.05 125  L 7.95 125  C 3.498 125  0 121.7  0 117.5  Z " fill-rule="evenodd" />
    </mask>
  </defs>
  <g transform="matrix(1 0 0 1 -387 -372 )">
    <path d="M 0 117.5  L 0 7.5  C 0 3.3  3.498 0  7.95 0  L 204.05 0  C 208.502 0  212 3.3  212 7.5  L 212 117.5  C 212 121.7  208.502 125  204.05 125  L 7.95 125  C 3.498 125  0 121.7  0 117.5  Z " fill-rule="nonzero" fill="#f2f2f2" stroke="none" transform="matrix(1 0 0 1 387 372 )" />
    <path d="M 0 117.5  L 0 7.5  C 0 3.3  3.498 0  7.95 0  L 204.05 0  C 208.502 0  212 3.3  212 7.5  L 212 117.5  C 212 121.7  208.502 125  204.05 125  L 7.95 125  C 3.498 125  0 121.7  0 117.5  Z " stroke-width="2" stroke="#797979" fill="none" transform="matrix(1 0 0 1 387 372 )" mask="url(#clip406)" />
  </g>
</svg>