<?xml version="1.0" encoding="utf-8"?>
<svg version="1.1" xmlns:xlink="http://www.w3.org/1999/xlink" width="163px" height="106px" xmlns="http://www.w3.org/2000/svg">
  <defs>
    <mask fill="white" id="clip218">
      <path d="M 0 99.64  L 0 6.36  C 0 2.7984  2.6895 0  6.1125 0  L 156.8875 0  C 160.3105 0  163 2.7984  163 6.36  L 163 99.64  C 163 103.2016  160.3105 106  156.8875 106  L 6.1125 106  C 2.6895 106  0 103.2016  0 99.64  Z " fill-rule="evenodd" />
    </mask>
  </defs>
  <g transform="matrix(1 0 0 1 -795 -521 )">
    <path d="M 0 99.64  L 0 6.36  C 0 2.7984  2.6895 0  6.1125 0  L 156.8875 0  C 160.3105 0  163 2.7984  163 6.36  L 163 99.64  C 163 103.2016  160.3105 106  156.8875 106  L 6.1125 106  C 2.6895 106  0 103.2016  0 99.64  Z " fill-rule="nonzero" fill="#f2f2f2" stroke="none" transform="matrix(1 0 0 1 795 521 )" />
    <path d="M 0 99.64  L 0 6.36  C 0 2.7984  2.6895 0  6.1125 0  L 156.8875 0  C 160.3105 0  163 2.7984  163 6.36  L 163 99.64  C 163 103.2016  160.3105 106  156.8875 106  L 6.1125 106  C 2.6895 106  0 103.2016  0 99.64  Z " stroke-width="2" stroke="#797979" fill="none" transform="matrix(1 0 0 1 795 521 )" mask="url(#clip218)" />
  </g>
</svg>