<?xml version="1.0" encoding="utf-8"?>
<svg version="1.1" xmlns:xlink="http://www.w3.org/1999/xlink" width="128px" height="106px" xmlns="http://www.w3.org/2000/svg">
  <defs>
    <mask fill="white" id="clip404">
      <path d="M 0 99.64  L 0 6.36  C 0 2.7984  2.112 0  4.8 0  L 123.2 0  C 125.888 0  128 2.7984  128 6.36  L 128 99.64  C 128 103.2016  125.888 106  123.2 106  L 4.8 106  C 2.112 106  0 103.2016  0 99.64  Z " fill-rule="evenodd" />
    </mask>
  </defs>
  <g transform="matrix(1 0 0 1 -968 -521 )">
    <path d="M 0 99.64  L 0 6.36  C 0 2.7984  2.112 0  4.8 0  L 123.2 0  C 125.888 0  128 2.7984  128 6.36  L 128 99.64  C 128 103.2016  125.888 106  123.2 106  L 4.8 106  C 2.112 106  0 103.2016  0 99.64  Z " fill-rule="nonzero" fill="#f2f2f2" stroke="none" transform="matrix(1 0 0 1 968 521 )" />
    <path d="M 0 99.64  L 0 6.36  C 0 2.7984  2.112 0  4.8 0  L 123.2 0  C 125.888 0  128 2.7984  128 6.36  L 128 99.64  C 128 103.2016  125.888 106  123.2 106  L 4.8 106  C 2.112 106  0 103.2016  0 99.64  Z " stroke-width="2" stroke="#797979" fill="none" transform="matrix(1 0 0 1 968 521 )" mask="url(#clip404)" />
  </g>
</svg>