<?xml version="1.0" encoding="utf-8"?>
<svg version="1.1" xmlns:xlink="http://www.w3.org/1999/xlink" width="123px" height="116px" xmlns="http://www.w3.org/2000/svg">
  <defs>
    <mask fill="white" id="clip324">
      <path d="M 0 109.04  L 0 6.96  C 0 3.0624  2.0295 0  4.6125 0  L 118.3875 0  C 120.9705 0  123 3.0624  123 6.96  L 123 109.04  C 123 112.9376  120.9705 116  118.3875 116  L 4.6125 116  C 2.0295 116  0 112.9376  0 109.04  Z " fill-rule="evenodd" />
    </mask>
  </defs>
  <g transform="matrix(1 0 0 1 -503 -116 )">
    <path d="M 0 109.04  L 0 6.96  C 0 3.0624  2.0295 0  4.6125 0  L 118.3875 0  C 120.9705 0  123 3.0624  123 6.96  L 123 109.04  C 123 112.9376  120.9705 116  118.3875 116  L 4.6125 116  C 2.0295 116  0 112.9376  0 109.04  Z " fill-rule="nonzero" fill="#f2f2f2" stroke="none" transform="matrix(1 0 0 1 503 116 )" />
    <path d="M 0 109.04  L 0 6.96  C 0 3.0624  2.0295 0  4.6125 0  L 118.3875 0  C 120.9705 0  123 3.0624  123 6.96  L 123 109.04  C 123 112.9376  120.9705 116  118.3875 116  L 4.6125 116  C 2.0295 116  0 112.9376  0 109.04  Z " stroke-width="2" stroke="#797979" fill="none" transform="matrix(1 0 0 1 503 116 )" mask="url(#clip324)" />
  </g>
</svg>