<?xml version="1.0" encoding="utf-8"?>
<svg version="1.1" xmlns:xlink="http://www.w3.org/1999/xlink" width="126px" height="116px" xmlns="http://www.w3.org/2000/svg">
  <defs>
    <mask fill="white" id="clip322">
      <path d="M 0 109.04  L 0 6.96  C 0 3.0624  2.079 0  4.725 0  L 121.275 0  C 123.921 0  126 3.0624  126 6.96  L 126 109.04  C 126 112.9376  123.921 116  121.275 116  L 4.725 116  C 2.079 116  0 112.9376  0 109.04  Z " fill-rule="evenodd" />
    </mask>
  </defs>
  <g transform="matrix(1 0 0 1 -1122 -116 )">
    <path d="M 0 109.04  L 0 6.96  C 0 3.0624  2.079 0  4.725 0  L 121.275 0  C 123.921 0  126 3.0624  126 6.96  L 126 109.04  C 126 112.9376  123.921 116  121.275 116  L 4.725 116  C 2.079 116  0 112.9376  0 109.04  Z " fill-rule="nonzero" fill="#f2f2f2" stroke="none" transform="matrix(1 0 0 1 1122 116 )" />
    <path d="M 0 109.04  L 0 6.96  C 0 3.0624  2.079 0  4.725 0  L 121.275 0  C 123.921 0  126 3.0624  126 6.96  L 126 109.04  C 126 112.9376  123.921 116  121.275 116  L 4.725 116  C 2.079 116  0 112.9376  0 109.04  Z " stroke-width="2" stroke="#797979" fill="none" transform="matrix(1 0 0 1 1122 116 )" mask="url(#clip322)" />
  </g>
</svg>