<?xml version="1.0" encoding="utf-8"?>
<svg version="1.1" xmlns:xlink="http://www.w3.org/1999/xlink" width="128px" height="116px" xmlns="http://www.w3.org/2000/svg">
  <defs>
    <mask fill="white" id="clip323">
      <path d="M 0 109.04  L 0 6.96  C 0 3.0624  2.112 0  4.8 0  L 123.2 0  C 125.888 0  128 3.0624  128 6.96  L 128 109.04  C 128 112.9376  125.888 116  123.2 116  L 4.8 116  C 2.112 116  0 112.9376  0 109.04  Z " fill-rule="evenodd" />
    </mask>
  </defs>
  <g transform="matrix(1 0 0 1 -227 -116 )">
    <path d="M 0 109.04  L 0 6.96  C 0 3.0624  2.112 0  4.8 0  L 123.2 0  C 125.888 0  128 3.0624  128 6.96  L 128 109.04  C 128 112.9376  125.888 116  123.2 116  L 4.8 116  C 2.112 116  0 112.9376  0 109.04  Z " fill-rule="nonzero" fill="#f2f2f2" stroke="none" transform="matrix(1 0 0 1 227 116 )" />
    <path d="M 0 109.04  L 0 6.96  C 0 3.0624  2.112 0  4.8 0  L 123.2 0  C 125.888 0  128 3.0624  128 6.96  L 128 109.04  C 128 112.9376  125.888 116  123.2 116  L 4.8 116  C 2.112 116  0 112.9376  0 109.04  Z " stroke-width="2" stroke="#797979" fill="none" transform="matrix(1 0 0 1 227 116 )" mask="url(#clip323)" />
  </g>
</svg>