<?xml version="1.0" encoding="utf-8"?>
<svg version="1.1" xmlns:xlink="http://www.w3.org/1999/xlink" width="158px" height="106px" xmlns="http://www.w3.org/2000/svg">
  <defs>
    <mask fill="white" id="clip592">
      <path d="M 0 99.64  L 0 6.36  C 0 2.7984  2.607 0  5.925 0  L 152.075 0  C 155.393 0  158 2.7984  158 6.36  L 158 99.64  C 158 103.2016  155.393 106  152.075 106  L 5.925 106  C 2.607 106  0 103.2016  0 99.64  Z " fill-rule="evenodd" />
    </mask>
  </defs>
  <g transform="matrix(1 0 0 1 -219 -521 )">
    <path d="M 0 99.64  L 0 6.36  C 0 2.7984  2.607 0  5.925 0  L 152.075 0  C 155.393 0  158 2.7984  158 6.36  L 158 99.64  C 158 103.2016  155.393 106  152.075 106  L 5.925 106  C 2.607 106  0 103.2016  0 99.64  Z " fill-rule="nonzero" fill="#f2f2f2" stroke="none" transform="matrix(1 0 0 1 219 521 )" />
    <path d="M 0 99.64  L 0 6.36  C 0 2.7984  2.607 0  5.925 0  L 152.075 0  C 155.393 0  158 2.7984  158 6.36  L 158 99.64  C 158 103.2016  155.393 106  152.075 106  L 5.925 106  C 2.607 106  0 103.2016  0 99.64  Z " stroke-width="2" stroke="#797979" fill="none" transform="matrix(1 0 0 1 219 521 )" mask="url(#clip592)" />
  </g>
</svg>