<?xml version="1.0" encoding="utf-8"?>
<svg version="1.1" xmlns:xlink="http://www.w3.org/1999/xlink" width="153px" height="116px" xmlns="http://www.w3.org/2000/svg">
  <defs>
    <mask fill="white" id="clip877">
      <path d="M 0 109.04  L 0 6.96  C 0 3.0624  2.5245 0  5.7375 0  L 147.2625 0  C 150.4755 0  153 3.0624  153 6.96  L 153 109.04  C 153 112.9376  150.4755 116  147.2625 116  L 5.7375 116  C 2.5245 116  0 112.9376  0 109.04  Z " fill-rule="evenodd" />
    </mask>
  </defs>
  <g transform="matrix(1 0 0 1 -959 -116 )">
    <path d="M 0 109.04  L 0 6.96  C 0 3.0624  2.5245 0  5.7375 0  L 147.2625 0  C 150.4755 0  153 3.0624  153 6.96  L 153 109.04  C 153 112.9376  150.4755 116  147.2625 116  L 5.7375 116  C 2.5245 116  0 112.9376  0 109.04  Z " fill-rule="nonzero" fill="#f2f2f2" stroke="none" transform="matrix(1 0 0 1 959 116 )" />
    <path d="M 0 109.04  L 0 6.96  C 0 3.0624  2.5245 0  5.7375 0  L 147.2625 0  C 150.4755 0  153 3.0624  153 6.96  L 153 109.04  C 153 112.9376  150.4755 116  147.2625 116  L 5.7375 116  C 2.5245 116  0 112.9376  0 109.04  Z " stroke-width="2" stroke="#797979" fill="none" transform="matrix(1 0 0 1 959 116 )" mask="url(#clip877)" />
  </g>
</svg>