<?xml version="1.0" encoding="utf-8"?>
<svg version="1.1" xmlns:xlink="http://www.w3.org/1999/xlink" width="145px" height="98px" xmlns="http://www.w3.org/2000/svg">
  <defs>
    <mask fill="white" id="clip874">
      <path d="M 0 92.12  L 0 5.88  C 0 2.5872  2.3925 0  5.4375 0  L 139.5625 0  C 142.6075 0  145 2.5872  145 5.88  L 145 92.12  C 145 95.4128  142.6075 98  139.5625 98  L 5.4375 98  C 2.3925 98  0 95.4128  0 92.12  Z " fill-rule="evenodd" />
    </mask>
  </defs>
  <g transform="matrix(1 0 0 1 -804 -256 )">
    <path d="M 0 92.12  L 0 5.88  C 0 2.5872  2.3925 0  5.4375 0  L 139.5625 0  C 142.6075 0  145 2.5872  145 5.88  L 145 92.12  C 145 95.4128  142.6075 98  139.5625 98  L 5.4375 98  C 2.3925 98  0 95.4128  0 92.12  Z " fill-rule="nonzero" fill="#f2f2f2" stroke="none" transform="matrix(1 0 0 1 804 256 )" />
    <path d="M 0 92.12  L 0 5.88  C 0 2.5872  2.3925 0  5.4375 0  L 139.5625 0  C 142.6075 0  145 2.5872  145 5.88  L 145 92.12  C 145 95.4128  142.6075 98  139.5625 98  L 5.4375 98  C 2.3925 98  0 95.4128  0 92.12  Z " stroke-width="2" stroke="#797979" fill="none" transform="matrix(1 0 0 1 804 256 )" mask="url(#clip874)" />
  </g>
</svg>