<?xml version="1.0" encoding="utf-8"?>
<svg version="1.1" xmlns:xlink="http://www.w3.org/1999/xlink" width="158px" height="116px" xmlns="http://www.w3.org/2000/svg">
  <defs>
    <mask fill="white" id="clip558">
      <path d="M 0 109.04  L 0 6.96  C 0 3.0624  2.607 0  5.925 0  L 152.075 0  C 155.393 0  158 3.0624  158 6.96  L 158 109.04  C 158 112.9376  155.393 116  152.075 116  L 5.925 116  C 2.607 116  0 112.9376  0 109.04  Z " fill-rule="evenodd" />
    </mask>
  </defs>
  <g transform="matrix(1 0 0 1 -636 -116 )">
    <path d="M 0 109.04  L 0 6.96  C 0 3.0624  2.607 0  5.925 0  L 152.075 0  C 155.393 0  158 3.0624  158 6.96  L 158 109.04  C 158 112.9376  155.393 116  152.075 116  L 5.925 116  C 2.607 116  0 112.9376  0 109.04  Z " fill-rule="nonzero" fill="#f2f2f2" stroke="none" transform="matrix(1 0 0 1 636 116 )" />
    <path d="M 0 109.04  L 0 6.96  C 0 3.0624  2.607 0  5.925 0  L 152.075 0  C 155.393 0  158 3.0624  158 6.96  L 158 109.04  C 158 112.9376  155.393 116  152.075 116  L 5.925 116  C 2.607 116  0 112.9376  0 109.04  Z " stroke-width="2" stroke="#797979" fill="none" transform="matrix(1 0 0 1 636 116 )" mask="url(#clip558)" />
  </g>
</svg>