<?xml version="1.0" encoding="utf-8"?>
<svg version="1.1" xmlns:xlink="http://www.w3.org/1999/xlink" width="13px" height="13px" viewBox="30 419.5  13 13" xmlns="http://www.w3.org/2000/svg">
  <path d="M 30.5 421.5  A 1.5 1.5 0 0 1 32 420 L 41 420  A 1.5 1.5 0 0 1 42.5 421.5 L 42.5 430.5  A 1.5 1.5 0 0 1 41 432 L 32 432  A 1.5 1.5 0 0 1 30.5 430.5 L 30.5 421.5  Z " fill-rule="nonzero" fill="#0043f0" stroke="none" />
  <path d="M 30.5 421.5  A 1.5 1.5 0 0 1 32 420 L 41 420  A 1.5 1.5 0 0 1 42.5 421.5 L 42.5 430.5  A 1.5 1.5 0 0 1 41 432 L 32 432  A 1.5 1.5 0 0 1 30.5 430.5 L 30.5 421.5  Z " stroke-width="1" stroke="#ffffff" fill="none" />
  <path d="M 32.7857142857143 426  L 35.5714285714286 428.785714285714  " stroke-width="2.78571428571429" stroke="#ffffff" fill="none" />
  <path d="M 35.5714285714286 428.785714285714  L 40.2142857142857 422.285714285714  " stroke-width="2.78571428571429" stroke="#ffffff" fill="none" />
</svg>