<?xml version="1.0" encoding="utf-8"?>
<svg version="1.1" xmlns:xlink="http://www.w3.org/1999/xlink" width="18px" height="18px" viewBox="30 407  18 18" xmlns="http://www.w3.org/2000/svg">
  <path d="M 30.5 409  A 1.5 1.5 0 0 1 32 407.5 L 46 407.5  A 1.5 1.5 0 0 1 47.5 409 L 47.5 423  A 1.5 1.5 0 0 1 46 424.5 L 32 424.5  A 1.5 1.5 0 0 1 30.5 423 L 30.5 409  Z " fill-rule="nonzero" fill="#ffffff" stroke="none" />
  <path d="M 30.5 409  A 1.5 1.5 0 0 1 32 407.5 L 46 407.5  A 1.5 1.5 0 0 1 47.5 409 L 47.5 423  A 1.5 1.5 0 0 1 46 424.5 L 32 424.5  A 1.5 1.5 0 0 1 30.5 423 L 30.5 409  Z " stroke-width="1" stroke="#0043f0" fill="none" />
</svg>