<?xml version="1.0" encoding="utf-8"?>
<svg version="1.1" xmlns:xlink="http://www.w3.org/1999/xlink" width="13px" height="13px" viewBox="30 419.5  13 13" xmlns="http://www.w3.org/2000/svg">
  <path d="M 30.5 421.5  A 1.5 1.5 0 0 1 32 420 L 41 420  A 1.5 1.5 0 0 1 42.5 421.5 L 42.5 430.5  A 1.5 1.5 0 0 1 41 432 L 32 432  A 1.5 1.5 0 0 1 30.5 430.5 L 30.5 421.5  Z " fill-rule="nonzero" fill="#ffffff" stroke="none" />
  <path d="M 30.5 421.5  A 1.5 1.5 0 0 1 32 420 L 41 420  A 1.5 1.5 0 0 1 42.5 421.5 L 42.5 430.5  A 1.5 1.5 0 0 1 41 432 L 32 432  A 1.5 1.5 0 0 1 30.5 430.5 L 30.5 421.5  Z " stroke-width="1" stroke="#0043f0" fill="none" />
</svg>