<?xml version="1.0" encoding="utf-8"?>
<svg version="1.1" xmlns:xlink="http://www.w3.org/1999/xlink" width="27px" height="27px" xmlns="http://www.w3.org/2000/svg">
  <g transform="matrix(1 0 0 1 -943 -319 )">
    <path d="M 20.91796875 11.25  C 20.91796875 11.5546875  20.806640625 11.818359375  20.583984375 12.041015625  L 13.166015625 19.458984375  C 12.943359375 19.681640625  12.6796875 19.79296875  12.375 19.79296875  C 12.0703125 19.79296875  11.806640625 19.681640625  11.583984375 19.458984375  L 6.416015625 14.291015625  C 6.193359375 14.068359375  6.08203125 13.8046875  6.08203125 13.5  C 6.08203125 13.1953125  6.193359375 12.931640625  6.416015625 12.708984375  L 8.208984375 10.916015625  C 8.431640625 10.693359375  8.6953125 10.58203125  9 10.58203125  C 9.3046875 10.58203125  9.568359375 10.693359375  9.791015625 10.916015625  L 12.375 13.5  L 17.208984375 8.666015625  C 17.431640625 8.443359375  17.6953125 8.33203125  18 8.33203125  C 18.3046875 8.33203125  18.568359375 8.443359375  18.791015625 8.666015625  L 20.583984375 10.458984375  C 20.806640625 10.681640625  20.91796875 10.9453125  20.91796875 11.25  Z M 21.779296875 18.298828125  C 22.634765625 16.833984375  23.0625 15.234375  23.0625 13.5  C 23.0625 11.765625  22.634765625 10.166015625  21.779296875 8.701171875  C 20.923828125 7.236328125  19.763671875 6.076171875  18.298828125 5.220703125  C 16.833984375 4.365234375  15.234375 3.9375  13.5 3.9375  C 11.765625 3.9375  10.166015625 4.365234375  8.701171875 5.220703125  C 7.236328125 6.076171875  6.076171875 7.236328125  5.220703125 8.701171875  C 4.365234375 10.166015625  3.9375 11.765625  3.9375 13.5  C 3.9375 15.234375  4.365234375 16.833984375  5.220703125 18.298828125  C 6.076171875 19.763671875  7.236328125 20.923828125  8.701171875 21.779296875  C 10.166015625 22.634765625  11.765625 23.0625  13.5 23.0625  C 15.234375 23.0625  16.833984375 22.634765625  18.298828125 21.779296875  C 19.763671875 20.923828125  20.923828125 19.763671875  21.779296875 18.298828125  Z M 25.189453125 6.7236328125  C 26.396484375 8.7919921875  27 11.05078125  27 13.5  C 27 15.94921875  26.396484375 18.2080078125  25.189453125 20.2763671875  C 23.982421875 22.3447265625  22.3447265625 23.982421875  20.2763671875 25.189453125  C 18.2080078125 26.396484375  15.94921875 27  13.5 27  C 11.05078125 27  8.7919921875 26.396484375  6.7236328125 25.189453125  C 4.6552734375 23.982421875  3.017578125 22.3447265625  1.810546875 20.2763671875  C 0.603515625 18.2080078125  0 15.94921875  0 13.5  C 0 11.05078125  0.603515625 8.7919921875  1.810546875 6.7236328125  C 3.017578125 4.6552734375  4.6552734375 3.017578125  6.7236328125 1.810546875  C 8.7919921875 0.603515624999998  11.05078125 0  13.5 0  C 15.94921875 0  18.2080078125 0.603515624999998  20.2763671875 1.810546875  C 22.3447265625 3.017578125  23.982421875 4.6552734375  25.189453125 6.7236328125  Z " fill-rule="nonzero" fill="#3bbf28" stroke="none" transform="matrix(1 0 0 1 943 319 )" />
  </g>
</svg>