<?xml version="1.0" encoding="utf-8"?>
<svg version="1.1" xmlns:xlink="http://www.w3.org/1999/xlink" width="167px" height="49px" xmlns="http://www.w3.org/2000/svg">
  <defs>
    <mask fill="white" id="clip319">
      <path d="M 0 44  L 0 5  C 0 2.2  2.41710526315795 0  5.49342105263158 0  L 161.506578947368 0  C 164.582894736842 0  167 2.2  167 5  L 167 44  C 167 46.8  164.582894736842 49  161.506578947368 49  L 90.1101164797239 49  L 5.49342105263158 49  C 2.41710526315795 49  0 46.8  0 44  Z " fill-rule="evenodd" />
    </mask>
  </defs>
  <g transform="matrix(1 0 0 1 -957 -97 )">
    <path d="M 0 44  L 0 5  C 0 2.2  2.41710526315795 0  5.49342105263158 0  L 161.506578947368 0  C 164.582894736842 0  167 2.2  167 5  L 167 44  C 167 46.8  164.582894736842 49  161.506578947368 49  L 90.1101164797239 49  L 5.49342105263158 49  C 2.41710526315795 49  0 46.8  0 44  Z " fill-rule="nonzero" fill="#bf7089" stroke="none" transform="matrix(1 0 0 1 957 97 )" />
    <path d="M 0 44  L 0 5  C 0 2.2  2.41710526315795 0  5.49342105263158 0  L 161.506578947368 0  C 164.582894736842 0  167 2.2  167 5  L 167 44  C 167 46.8  164.582894736842 49  161.506578947368 49  L 90.1101164797239 49  L 5.49342105263158 49  C 2.41710526315795 49  0 46.8  0 44  Z " stroke-width="4" stroke="#611232" fill="none" transform="matrix(1 0 0 1 957 97 )" mask="url(#clip319)" />
  </g>
</svg>