<?xml version="1.0" encoding="utf-8"?>
<svg version="1.1" xmlns:xlink="http://www.w3.org/1999/xlink" width="1113px" height="58px" xmlns="http://www.w3.org/2000/svg">
  <defs>
    <mask fill="white" id="clip492">
      <path d="M 0 55  L 0 3  C 0 1.31999999999994  1.31999999999999 0  3 0  L 1087.9552238806 0  L 1110 0  C 1111.68 0  1113 1.31999999999994  1113 3  L 1113 55  C 1113 56.6800000000001  1111.68 58  1110 58  L 3 58  C 1.31999999999999 58  0 56.6800000000001  0 55  Z " fill-rule="evenodd" />
    </mask>
  </defs>
  <g transform="matrix(1 0 0 1 -110 -513 )">
    <path d="M 0 55  L 0 3  C 0 1.31999999999994  1.31999999999999 0  3 0  L 1087.9552238806 0  L 1110 0  C 1111.68 0  1113 1.31999999999994  1113 3  L 1113 55  C 1113 56.6800000000001  1111.68 58  1110 58  L 3 58  C 1.31999999999999 58  0 56.6800000000001  0 55  Z " fill-rule="nonzero" fill="#dff0d8" stroke="none" transform="matrix(1 0 0 1 110 513 )" />
    <path d="M 0 55  L 0 3  C 0 1.31999999999994  1.31999999999999 0  3 0  L 1087.9552238806 0  L 1110 0  C 1111.68 0  1113 1.31999999999994  1113 3  L 1113 55  C 1113 56.6800000000001  1111.68 58  1110 58  L 3 58  C 1.31999999999999 58  0 56.6800000000001  0 55  Z " stroke-width="4" stroke="#d6e9c6" fill="none" transform="matrix(1 0 0 1 110 513 )" mask="url(#clip492)" />
  </g>
</svg>