<?xml version="1.0" encoding="utf-8"?>
<svg version="1.1" xmlns:xlink="http://www.w3.org/1999/xlink" width="20px" height="20px" viewBox="123 191  20 20" xmlns="http://www.w3.org/2000/svg">
  <path d="M 123.5 193  A 1.5 1.5 0 0 1 125 191.5 L 141 191.5  A 1.5 1.5 0 0 1 142.5 193 L 142.5 209  A 1.5 1.5 0 0 1 141 210.5 L 125 210.5  A 1.5 1.5 0 0 1 123.5 209 L 123.5 193  Z " fill-rule="nonzero" fill="#ffffff" stroke="none" />
  <path d="M 123.5 193  A 1.5 1.5 0 0 1 125 191.5 L 141 191.5  A 1.5 1.5 0 0 1 142.5 193 L 142.5 209  A 1.5 1.5 0 0 1 141 210.5 L 125 210.5  A 1.5 1.5 0 0 1 123.5 209 L 123.5 193  Z " stroke-width="1" stroke="#0043f0" fill="none" />
</svg>