<?xml version="1.0" encoding="utf-8"?>
<svg version="1.1" xmlns:xlink="http://www.w3.org/1999/xlink" width="20px" height="20px" viewBox="123 9  20 20" xmlns="http://www.w3.org/2000/svg">
  <path d="M 123.5 11  A 1.5 1.5 0 0 1 125 9.5 L 141 9.5  A 1.5 1.5 0 0 1 142.5 11 L 142.5 27  A 1.5 1.5 0 0 1 141 28.5 L 125 28.5  A 1.5 1.5 0 0 1 123.5 27 L 123.5 11  Z " fill-rule="nonzero" fill="#0043f0" stroke="none" />
  <path d="M 123.5 11  A 1.5 1.5 0 0 1 125 9.5 L 141 9.5  A 1.5 1.5 0 0 1 142.5 11 L 142.5 27  A 1.5 1.5 0 0 1 141 28.5 L 125 28.5  A 1.5 1.5 0 0 1 123.5 27 L 123.5 11  Z " stroke-width="1" stroke="#ffffff" fill="none" />
  <path d="M 127.285714285714 19  L 131.571428571429 23.2857142857143  " stroke-width="4.28571428571429" stroke="#ffffff" fill="none" />
  <path d="M 131.571428571429 23.2857142857143  L 138.714285714286 13.2857142857143  " stroke-width="4.28571428571429" stroke="#ffffff" fill="none" />
</svg>