<?xml version="1.0" encoding="utf-8"?>
<svg version="1.1" xmlns:xlink="http://www.w3.org/1999/xlink" width="20px" height="20px" viewBox="123 52  20 20" xmlns="http://www.w3.org/2000/svg">
  <path d="M 123.5 54  A 1.5 1.5 0 0 1 125 52.5 L 141 52.5  A 1.5 1.5 0 0 1 142.5 54 L 142.5 70  A 1.5 1.5 0 0 1 141 71.5 L 125 71.5  A 1.5 1.5 0 0 1 123.5 70 L 123.5 54  Z " fill-rule="nonzero" fill="#ffffff" stroke="none" />
  <path d="M 123.5 54  A 1.5 1.5 0 0 1 125 52.5 L 141 52.5  A 1.5 1.5 0 0 1 142.5 54 L 142.5 70  A 1.5 1.5 0 0 1 141 71.5 L 125 71.5  A 1.5 1.5 0 0 1 123.5 70 L 123.5 54  Z " stroke-width="1" stroke="#0043f0" fill="none" />
</svg>