<?xml version="1.0" encoding="utf-8"?>
<svg version="1.1" xmlns:xlink="http://www.w3.org/1999/xlink" width="20px" height="20px" viewBox="123 291  20 20" xmlns="http://www.w3.org/2000/svg">
  <path d="M 123.5 293  A 1.5 1.5 0 0 1 125 291.5 L 141 291.5  A 1.5 1.5 0 0 1 142.5 293 L 142.5 309  A 1.5 1.5 0 0 1 141 310.5 L 125 310.5  A 1.5 1.5 0 0 1 123.5 309 L 123.5 293  Z " fill-rule="nonzero" fill="#f0f0f0" stroke="none" />
  <path d="M 123.5 293  A 1.5 1.5 0 0 1 125 291.5 L 141 291.5  A 1.5 1.5 0 0 1 142.5 293 L 142.5 309  A 1.5 1.5 0 0 1 141 310.5 L 125 310.5  A 1.5 1.5 0 0 1 123.5 309 L 123.5 293  Z " stroke-width="1" stroke="#0043f0" fill="none" />
  <path d="M 127.285714285714 301  L 131.571428571429 305.285714285714  " stroke-width="4.28571428571429" stroke="#0043f0" fill="none" />
  <path d="M 131.571428571429 305.285714285714  L 138.714285714286 295.285714285714  " stroke-width="4.28571428571429" stroke="#0043f0" fill="none" />
</svg>