<?xml version="1.0" encoding="utf-8"?>
<svg version="1.1" xmlns:xlink="http://www.w3.org/1999/xlink" width="20px" height="20px" viewBox="123 149  20 20" xmlns="http://www.w3.org/2000/svg">
  <path d="M 123.5 151  A 1.5 1.5 0 0 1 125 149.5 L 141 149.5  A 1.5 1.5 0 0 1 142.5 151 L 142.5 167  A 1.5 1.5 0 0 1 141 168.5 L 125 168.5  A 1.5 1.5 0 0 1 123.5 167 L 123.5 151  Z " fill-rule="nonzero" fill="#f0f0f0" stroke="none" />
  <path d="M 123.5 151  A 1.5 1.5 0 0 1 125 149.5 L 141 149.5  A 1.5 1.5 0 0 1 142.5 151 L 142.5 167  A 1.5 1.5 0 0 1 141 168.5 L 125 168.5  A 1.5 1.5 0 0 1 123.5 167 L 123.5 151  Z " stroke-width="1" stroke="#0043f0" fill="none" />
  <path d="M 127.285714285714 159  L 131.571428571429 163.285714285714  " stroke-width="4.28571428571429" stroke="#0043f0" fill="none" />
  <path d="M 131.571428571429 163.285714285714  L 138.714285714286 153.285714285714  " stroke-width="4.28571428571429" stroke="#0043f0" fill="none" />
</svg>