<?xml version="1.0" encoding="utf-8"?>
<svg version="1.1" xmlns:xlink="http://www.w3.org/1999/xlink" width="13px" height="13px" viewBox="20 121  13 13" xmlns="http://www.w3.org/2000/svg">
  <path d="M 26.5 121  C 30.14 121  33 123.86  33 127.5  C 33 131.14  30.14 134  26.5 134  C 22.86 134  20 131.14  20 127.5  C 20 123.86  22.86 121  26.5 121  Z " fill-rule="nonzero" fill="#ffffff" stroke="none" />
  <path d="M 26.5 121.5  C 29.86 121.5  32.5 124.14  32.5 127.5  C 32.5 130.86  29.86 133.5  26.5 133.5  C 23.14 133.5  20.5 130.86  20.5 127.5  C 20.5 124.14  23.14 121.5  26.5 121.5  Z " stroke-width="1" stroke="#0043f0" fill="none" />
  <path d="M 26.5 130.75  C 24.68 130.75  23.25 129.32  23.25 127.5  C 23.25 125.68  24.68 124.25  26.5 124.25  C 28.32 124.25  29.75 125.68  29.75 127.5  C 29.75 129.32  28.32 130.75  26.5 130.75  " fill-rule="nonzero" fill="#0043f0" stroke="none" />
</svg>