<?xml version="1.0" encoding="utf-8"?>
<svg version="1.1" xmlns:xlink="http://www.w3.org/1999/xlink" width="20px" height="20px" viewBox="46 263  20 20" xmlns="http://www.w3.org/2000/svg">
  <path d="M 46.5 265  A 1.5 1.5 0 0 1 48 263.5 L 64 263.5  A 1.5 1.5 0 0 1 65.5 265 L 65.5 281  A 1.5 1.5 0 0 1 64 282.5 L 48 282.5  A 1.5 1.5 0 0 1 46.5 281 L 46.5 265  Z " fill-rule="nonzero" fill="#f0f0f0" stroke="none" />
  <path d="M 46.5 265  A 1.5 1.5 0 0 1 48 263.5 L 64 263.5  A 1.5 1.5 0 0 1 65.5 265 L 65.5 281  A 1.5 1.5 0 0 1 64 282.5 L 48 282.5  A 1.5 1.5 0 0 1 46.5 281 L 46.5 265  Z " stroke-width="1" stroke="#0043f0" fill="none" />
</svg>