<?xml version="1.0" encoding="utf-8"?>
<svg version="1.1" xmlns:xlink="http://www.w3.org/1999/xlink" width="3px" height="12px" xmlns="http://www.w3.org/2000/svg">
  <g transform="matrix(1 0 0 1 -1040 -18 )">
    <path d="M 3 1  C 3 0.4477152502  2.3284271247 0  1.5 0  C 0.6715728753 0  0 0.4477152502  0 1  C 0 1.5522847498  0.6715728753 2  1.5 2  C 2.3284271247 2  3 1.5522847498  3 1  Z M 3 6  C 3 5.4477152502  2.3284271247 5  1.5 5  C 0.6715728753 5  0 5.4477152502  0 6  C 0 6.5522847498  0.6715728753 7  1.5 7  C 2.3284271247 7  3 6.5522847498  3 6  Z M 1.5 10  C 0.6715728753 10  0 10.4477152502  0 11  C 0 11.5522847498  0.6715728753 12  1.5 12  C 2.3284271247 12  3 11.5522847498  3 11  C 3 10.4477152502  2.3284271247 10  1.5 10  Z " fill-rule="nonzero" fill="#161616" stroke="none" transform="matrix(1 0 0 1 1040 18 )" />
  </g>
</svg>