<?xml version="1.0" encoding="utf-8"?>
<svg version="1.1" xmlns:xlink="http://www.w3.org/1999/xlink" width="22px" height="18px" xmlns="http://www.w3.org/2000/svg">
  <g transform="matrix(1 0 0 1 -1557 -664 )">
    <path d="M 20.9 18  L 22 17.1  L 15.2428571428571 11.5714285714286  C 18.2285714285714 8.61428571428572  17.7571428571429 4.11428571428572  14.1428571428571 1.67142857142857  C 10.5285714285714 -0.771428571428564  5.02857142857143 -0.385714285714282  2.04285714285714 2.57142857142857  C -0.942857142857145 5.52857142857142  -0.471428571428567 10.0285714285714  3.14285714285714 12.4714285714286  C 6.28571428571429 14.6571428571428  11 14.6571428571428  14.1428571428571 12.4714285714286  L 20.9 18  Z M 8.64285714285714 12.8571428571429  C 4.71428571428571 12.8571428571429  1.57142857142857 10.2857142857143  1.57142857142857 7.07142857142857  C 1.57142857142857 3.85714285714286  4.71428571428571 1.28571428571429  8.64285714285714 1.28571428571429  C 12.5714285714286 1.28571428571429  15.7142857142857 3.85714285714286  15.7142857142857 7.07142857142857  C 15.7142857142857 10.2857142857143  12.5714285714286 12.8571428571429  8.64285714285714 12.8571428571429  Z " fill-rule="nonzero" fill="#c6c6c6" stroke="none" transform="matrix(1 0 0 1 1557 664 )" />
  </g>
</svg>