<?xml version="1.0" encoding="utf-8"?>
<svg version="1.1" xmlns:xlink="http://www.w3.org/1999/xlink" width="20px" height="20px" viewBox="879 33  20 20" xmlns="http://www.w3.org/2000/svg">
  <path d="M 889 33  C 894.6 33  899 37.4  899 43  C 899 48.6  894.6 53  889 53  C 883.4 53  879 48.6  879 43  C 879 37.4  883.4 33  889 33  Z " fill-rule="nonzero" fill="#f0f0f0" stroke="none" />
  <path d="M 889 33.5  C 894.32 33.5  898.5 37.68  898.5 43  C 898.5 48.32  894.32 52.5  889 52.5  C 883.68 52.5  879.5 48.32  879.5 43  C 879.5 37.68  883.68 33.5  889 33.5  Z " stroke-width="1" stroke="#0043f0" fill="none" />
  <path d="M 889 48  C 886.2 48  884 45.8  884 43  C 884 40.2  886.2 38  889 38  C 891.8 38  894 40.2  894 43  C 894 45.8  891.8 48  889 48  " fill-rule="nonzero" fill="#0043f0" stroke="none" />
</svg>