<?xml version="1.0" encoding="utf-8"?>
<svg version="1.1" xmlns:xlink="http://www.w3.org/1999/xlink" width="20px" height="20px" viewBox="115 1855  20 20" xmlns="http://www.w3.org/2000/svg">
  <path d="M 115.5 1857  A 1.5 1.5 0 0 1 117 1855.5 L 133 1855.5  A 1.5 1.5 0 0 1 134.5 1857 L 134.5 1873  A 1.5 1.5 0 0 1 133 1874.5 L 117 1874.5  A 1.5 1.5 0 0 1 115.5 1873 L 115.5 1857  Z " fill-rule="nonzero" fill="#f0f0f0" stroke="none" />
  <path d="M 115.5 1857  A 1.5 1.5 0 0 1 117 1855.5 L 133 1855.5  A 1.5 1.5 0 0 1 134.5 1857 L 134.5 1873  A 1.5 1.5 0 0 1 133 1874.5 L 117 1874.5  A 1.5 1.5 0 0 1 115.5 1873 L 115.5 1857  Z " stroke-width="1" stroke="#0043f0" fill="none" />
</svg>