<?xml version="1.0" encoding="utf-8"?>
<svg version="1.1" xmlns:xlink="http://www.w3.org/1999/xlink" width="16px" height="16px" viewBox="29 187  16 16" xmlns="http://www.w3.org/2000/svg">
  <path d="M 29.5 189  A 1.5 1.5 0 0 1 31 187.5 L 43 187.5  A 1.5 1.5 0 0 1 44.5 189 L 44.5 201  A 1.5 1.5 0 0 1 43 202.5 L 31 202.5  A 1.5 1.5 0 0 1 29.5 201 L 29.5 189  Z " fill-rule="nonzero" fill="#f0f0f0" stroke="none" />
  <path d="M 29.5 189  A 1.5 1.5 0 0 1 31 187.5 L 43 187.5  A 1.5 1.5 0 0 1 44.5 189 L 44.5 201  A 1.5 1.5 0 0 1 43 202.5 L 31 202.5  A 1.5 1.5 0 0 1 29.5 201 L 29.5 189  Z " stroke-width="1" stroke="#0043f0" fill="none" />
</svg>