<?xml version="1.0" encoding="utf-8"?>
<svg version="1.1" xmlns:xlink="http://www.w3.org/1999/xlink" width="16px" height="16px" viewBox="29 203  16 16" xmlns="http://www.w3.org/2000/svg">
  <path d="M 29.5 205  A 1.5 1.5 0 0 1 31 203.5 L 43 203.5  A 1.5 1.5 0 0 1 44.5 205 L 44.5 217  A 1.5 1.5 0 0 1 43 218.5 L 31 218.5  A 1.5 1.5 0 0 1 29.5 217 L 29.5 205  Z " fill-rule="nonzero" fill="#ffffff" stroke="none" />
  <path d="M 29.5 205  A 1.5 1.5 0 0 1 31 203.5 L 43 203.5  A 1.5 1.5 0 0 1 44.5 205 L 44.5 217  A 1.5 1.5 0 0 1 43 218.5 L 31 218.5  A 1.5 1.5 0 0 1 29.5 217 L 29.5 205  Z " stroke-width="1" stroke="#0043f0" fill="none" />
</svg>