<?xml version="1.0" encoding="utf-8"?>
<svg version="1.1" xmlns:xlink="http://www.w3.org/1999/xlink" width="23px" height="19px" xmlns="http://www.w3.org/2000/svg">
  <g transform="matrix(1 0 0 1 -392 -2063 )">
    <path d="M 13.2819010416667 15.7220052083333  C 13.3717447916667 15.6477864583333  13.4166666666667 15.5529513888889  13.4166666666667 15.4375  L 13.4166666666667 13.0625  C 13.4166666666667 12.9470486111111  13.3717447916667 12.8522135416667  13.2819010416667 12.7779947916667  C 13.1920572916667 12.7037760416667  13.0772569444444 12.6666666666667  12.9375 12.6666666666667  L 10.0625 12.6666666666667  C 9.92274305555556 12.6666666666667  9.80794270833333 12.7037760416667  9.71809895833333 12.7779947916667  C 9.62825520833333 12.8522135416667  9.58333333333333 12.9470486111111  9.58333333333333 13.0625  L 9.58333333333333 15.4375  C 9.58333333333333 15.5529513888889  9.62825520833333 15.6477864583333  9.71809895833333 15.7220052083333  C 9.80794270833333 15.7962239583333  9.92274305555556 15.8333333333333  10.0625 15.8333333333333  L 12.9375 15.8333333333333  C 13.0772569444444 15.8333333333333  13.1920572916667 15.7962239583333  13.2819010416667 15.7220052083333  Z M 17.0628255208333 8.126953125  C 17.1876085069444 7.82183159722222  17.25 7.48784722222222  17.25 7.125  C 17.25 6.39930555555555  16.9729817708333 5.72721354166667  16.4189453125 5.10872395833333  C 15.8649088541667 4.490234375  15.1736111111111 4.01193576388889  14.3450520833333 3.673828125  C 13.5164930555556 3.33572048611111  12.66796875 3.16666666666667  11.7994791666667 3.16666666666667  C 9.37369791666667 3.16666666666667  7.52191840277778 4.044921875  6.244140625 5.80143229166667  C 6.09440104166667 5.99934895833333  6.13433159722222 6.17252604166667  6.36393229166667 6.32096354166667  L 8.34049479166667 7.55794270833333  C 8.41037326388889 7.607421875  8.50520833333333 7.63216145833333  8.625 7.63216145833333  C 8.78472222222222 7.63216145833333  8.90950520833333 7.58268229166667  8.99934895833333 7.48372395833333  C 9.52842881944444 6.92296006944444  9.95768229166667 6.54361979166667  10.287109375 6.345703125  C 10.6265190972222 6.14778645833333  11.0557725694444 6.048828125  11.5748697916667 6.048828125  C 12.0540364583333 6.048828125  12.4807942708333 6.15603298611111  12.8551432291667 6.37044270833333  C 13.2294921875 6.58485243055555  13.4166666666667 6.828125  13.4166666666667 7.10026041666667  C 13.4166666666667 7.41362847222222  13.3168402777778 7.66514756944444  13.1171875 7.85481770833333  C 12.9175347222222 8.04448784722222  12.578125 8.23003472222222  12.0989583333333 8.41145833333333  C 11.4700520833333 8.64236111111111  10.8935546875 8.9990234375  10.3694661458333 9.4814453125  C 9.84537760416667 9.9638671875  9.58333333333333 10.4813368055556  9.58333333333333 11.0338541666667  L 9.58333333333333 11.4791666666667  C 9.58333333333333 11.5946180555556  9.62825520833333 11.689453125  9.71809895833333 11.763671875  C 9.80794270833333 11.837890625  9.92274305555556 11.875  10.0625 11.875  L 12.9375 11.875  C 13.0772569444444 11.875  13.1920572916667 11.837890625  13.2819010416667 11.763671875  C 13.3717447916667 11.689453125  13.4166666666667 11.5946180555556  13.4166666666667 11.4791666666667  C 13.4166666666667 11.3224826388889  13.5239800347222 11.1183810763889  13.7386067708333 10.8668619791667  C 13.9532335069444 10.6153428819444  14.2252604166667 10.4112413194444  14.5546875 10.2545572916667  C 14.8741319444444 10.1061197916667  15.1187065972222 9.98860677083333  15.2884114583333 9.90201822916667  C 15.4581163194444 9.8154296875  15.6877170138889 9.67111545138889  15.9772135416667 9.46907552083333  C 16.2667100694444 9.26703559027778  16.4888237847222 9.06911892361111  16.6435546875 8.87532552083333  C 16.7982855902778 8.68153211805555  16.9380425347222 8.43207465277778  17.0628255208333 8.126953125  Z M 21.4576822916667 4.7314453125  C 22.4858940972222 6.18695746527778  23 7.77647569444444  23 9.5  C 23 11.2235243055556  22.4858940972222 12.8130425347222  21.4576822916667 14.2685546875  C 20.4294704861111 15.7240668402778  19.0343967013889 16.8765190972222  17.2724609375 17.7259114583333  C 15.5105251736111 18.5753038194444  13.5863715277778 19  11.5 19  C 9.41362847222222 19  7.48947482638889 18.5753038194444  5.7275390625 17.7259114583333  C 3.96560329861111 16.8765190972222  2.57052951388889 15.7240668402778  1.54231770833333 14.2685546875  C 0.514105902777778 12.8130425347222  0 11.2235243055556  0 9.5  C 0 7.77647569444444  0.514105902777778 6.18695746527778  1.54231770833333 4.7314453125  C 2.57052951388889 3.27593315972222  3.96560329861111 2.12348090277778  5.7275390625 1.27408854166667  C 7.48947482638889 0.424696180555554  9.41362847222222 0  11.5 0  C 13.5863715277778 0  15.5105251736111 0.424696180555554  17.2724609375 1.27408854166667  C 19.0343967013889 2.12348090277778  20.4294704861111 3.27593315972222  21.4576822916667 4.7314453125  Z " fill-rule="nonzero" fill="#9d2449" stroke="none" transform="matrix(1 0 0 1 392 2063 )" />
  </g>
</svg>