<?xml version="1.0" encoding="utf-8"?>
<svg version="1.1" xmlns:xlink="http://www.w3.org/1999/xlink" width="22px" height="22px" xmlns="http://www.w3.org/2000/svg">
  <g transform="matrix(1 0 0 1 -1045 -108 )">
    <path d="M 5.5 14.6666666666667  L 5.5 20  L 16.5 20  L 16.5 14.6666666666667  L 5.5 14.6666666666667  Z M 18.3333333333333 14.2083333333333  L 18.3333333333333 20.1666666666667  L 20 20.1666666666667  L 20 7.33333333333333  C 20.1666666666667 7.19965277777778  20.1189236111111 7.01584201388889  20.0234375 6.78190104166667  C 19.9279513888889 6.54796006944444  19.8324652777778 6.38324652777778  19.7369791666667 6.28776041666667  L 15.7122395833333 2.26302083333333  C 15.6167534722222 2.16753472222222  15.4544270833333 2.07204861111111  15.2252604166667 1.9765625  C 14.99609375 1.88107638888889  14.8098958333333 1.83333333333333  14.6666666666667 1.83333333333333  L 14.6666666666667 7.79166666666667  C 14.6666666666667 8.17361111111111  14.5329861111111 8.49826388888889  14.265625 8.765625  C 13.9982638888889 9.03298611111111  13.6736111111111 9.16666666666667  13.2916666666667 9.16666666666667  L 5.04166666666667 9.16666666666667  C 4.65972222222222 9.16666666666667  4.33506944444444 9.03298611111111  4.06770833333333 8.765625  C 3.80034722222222 8.49826388888889  3.66666666666667 8.17361111111111  3.66666666666667 7.79166666666667  L 3.66666666666667 1.83333333333333  L 2 1.83333333333333  L 2 20.1666666666667  L 3.66666666666667 20.1666666666667  L 3.66666666666667 14.2083333333333  C 3.66666666666667 13.8263888888889  3.80034722222222 13.5017361111111  4.06770833333333 13.234375  C 4.33506944444444 12.9670138888889  4.65972222222222 12.8333333333333  5.04166666666667 12.8333333333333  L 16.9583333333333 12.8333333333333  C 17.3402777777778 12.8333333333333  17.6649305555556 12.9670138888889  17.9322916666667 13.234375  C 18.1996527777778 13.5017361111111  18.3333333333333 13.8263888888889  18.3333333333333 14.2083333333333  Z M 12.697265625 7.197265625  C 12.7879774305556 7.10655381944444  12.8333333333333 6.99913194444444  12.8333333333333 6.875  L 12.8333333333333 2.29166666666667  C 12.8333333333333 2.16753472222222  12.7879774305556 2.06011284722222  12.697265625 1.96940104166667  C 12.6065538194444 1.87868923611111  12.4991319444444 1.83333333333333  12.375 1.83333333333333  L 9.625 1.83333333333333  C 9.50086805555556 1.83333333333333  9.39344618055556 1.87868923611111  9.302734375 1.96940104166667  C 9.21202256944445 2.06011284722222  9.16666666666667 2.16753472222222  9.16666666666667 2.29166666666667  L 9.16666666666667 6.875  C 9.16666666666667 6.99913194444444  9.21202256944445 7.10655381944444  9.302734375 7.197265625  C 9.39344618055556 7.28797743055555  9.50086805555556 7.33333333333333  9.625 7.33333333333333  L 12.375 7.33333333333333  C 12.4991319444444 7.33333333333333  12.6065538194444 7.28797743055555  12.697265625 7.197265625  Z M 21.7135416666667 6.07291666666667  C 21.9045138888889 6.53125  22 6.95138888888889  22 7.33333333333333  L 22 20.625  C 22 21.0069444444444  21.8663194444444 21.3315972222222  21.5989583333333 21.5989583333333  C 21.3315972222222 21.8663194444444  21.0069444444444 22  20.625 22  L 1.375 22  C 0.993055555555556 22  0.668402777777778 21.8663194444444  0.401041666666667 21.5989583333333  C 0.133680555555556 21.3315972222222  0 21.0069444444444  0 20.625  L 0 1.375  C 0 0.993055555555554  0.133680555555556 0.668402777777775  0.401041666666667 0.401041666666666  C 0.668402777777778 0.133680555555554  0.993055555555556 0  1.375 0  L 14.6666666666667 0  C 15.0486111111111 0  15.46875 0.0954861111111089  15.9270833333333 0.286458333333334  C 16.3854166666667 0.477430555555554  16.7482638888889 0.70659722222222  17.015625 0.973958333333334  L 21.0260416666667 4.984375  C 21.2934027777778 5.25173611111111  21.5225694444444 5.61458333333333  21.7135416666667 6.07291666666667  Z " fill-rule="nonzero" fill="#9d2020" stroke="none" transform="matrix(1 0 0 1 1045 108 )" />
  </g>
</svg>