<?xml version="1.0" encoding="utf-8"?>
<svg version="1.1" xmlns:xlink="http://www.w3.org/1999/xlink" width="29px" height="28px" xmlns="http://www.w3.org/2000/svg">
  <g transform="matrix(1 0 0 1 -1402 -2644 )">
    <path d="M 1416.5 2671.21643853949  C 1410.9 2664.51780833199  1402.5 2660.4986302075  1402.5 2653.8  C 1402.5 2650.34571428571  1405.3 2644.5  1416.5 2644.5  C 1427.7 2644.5  1430.5 2650.34571428571  1430.5 2653.8  C 1430.5 2660.4986302075  1422.1 2664.51780833199  1416.5 2671.21643853949  Z " fill-rule="nonzero" fill="#0c231e" stroke="none" />
    <path d="M 1416.5 2672  C 1410.7 2665  1402 2660.8  1402 2653.8  C 1402 2650.16  1404.9 2644  1416.5 2644  C 1428.1 2644  1431 2650.16  1431 2653.8  C 1431 2660.8  1422.3 2665  1416.5 2672  Z M 1416.5 2670.43287707898  C 1421.9 2664.03561666399  1430 2660.19726041499  1430 2653.8  C 1430 2650.53142857143  1427.3 2645  1416.5 2645  C 1405.7 2645  1403 2650.53142857143  1403 2653.8  C 1403 2660.19726041499  1411.1 2664.03561666399  1416.5 2670.43287707898  Z " fill-rule="nonzero" fill="#797979" stroke="none" />
  </g>
</svg>