<?xml version="1.0" encoding="utf-8"?>
<svg version="1.1" xmlns:xlink="http://www.w3.org/1999/xlink" width="227px" height="48px" xmlns="http://www.w3.org/2000/svg">
  <defs>
    <mask fill="white" id="clip60">
      <path d="M 0 43  L 0 5  C 0 2.20000000000005  2.20000000000005 0  5 0  L 222 0  C 224.8 0  227 2.20000000000005  227 5  L 227 43  C 227 45.8  224.8 48  222 48  L 189.631578947368 48  L 5 48  C 2.20000000000005 48  0 45.8  0 43  Z " fill-rule="evenodd" />
    </mask>
  </defs>
  <g transform="matrix(1 0 0 1 -815 -1375 )">
    <path d="M 0 43  L 0 5  C 0 2.20000000000005  2.20000000000005 0  5 0  L 222 0  C 224.8 0  227 2.20000000000005  227 5  L 227 43  C 227 45.8  224.8 48  222 48  L 189.631578947368 48  L 5 48  C 2.20000000000005 48  0 45.8  0 43  Z " fill-rule="nonzero" fill="#6e7170" stroke="none" transform="matrix(1 0 0 1 815 1375 )" />
    <path d="M 0 43  L 0 5  C 0 2.20000000000005  2.20000000000005 0  5 0  L 222 0  C 224.8 0  227 2.20000000000005  227 5  L 227 43  C 227 45.8  224.8 48  222 48  L 189.631578947368 48  L 5 48  C 2.20000000000005 48  0 45.8  0 43  Z " stroke-width="4" stroke="#737373" fill="none" transform="matrix(1 0 0 1 815 1375 )" mask="url(#clip60)" />
  </g>
</svg>