<?xml version="1.0" encoding="utf-8"?>
<svg version="1.1" xmlns:xlink="http://www.w3.org/1999/xlink" width="111px" height="97px" xmlns="http://www.w3.org/2000/svg">
  <g transform="matrix(1 0 0 1 -102 -1141 )">
    <path d="M 102 1141  L 213 1141  L 213 1238  L 102 1238  L 102 1141  " fill-rule="nonzero" fill="#cccccc" stroke="none" />
    <path d="M 109 1148  L 206 1148  L 206 1231  L 109 1231  L 109 1148  " fill-rule="nonzero" fill="#ffffff" stroke="none" />
    <path d="M 166.995 1170.1  C 162.921 1170.1  159.72 1166.899  159.72 1162.825  C 159.72 1158.751  162.921 1155.55  166.995 1155.55  C 171.069 1155.55  174.27 1158.751  174.27 1162.825  C 174.27 1166.899  171.069 1170.1  166.995 1170.1  " fill-rule="nonzero" fill="#cccccc" stroke="none" />
    <path d="M 112 1229  L 112 1186.1  L 135 1166.6  L 167.2 1188.1027027027  L 185.6 1178.3  L 204 1188.1027027027  L 204 1229  L 112 1229  " fill-rule="nonzero" fill="#169bd5" stroke="none" />
  </g>
</svg>