<?xml version="1.0" encoding="utf-8"?>
<svg version="1.1" xmlns:xlink="http://www.w3.org/1999/xlink" width="18px" height="18px" xmlns="http://www.w3.org/2000/svg">
  <g transform="matrix(1 0 0 1 -85 -87 )">
    <path d="M 94 87  C 99.04 87  103 90.96  103 96  C 103 101.04  99.04 105  94 105  C 88.96 105  85 101.04  85 96  C 85 90.96  88.96 87  94 87  Z " fill-rule="nonzero" fill="#d0021b" stroke="none" />
    <path d="M 94 87.5  C 98.76 87.5  102.5 91.24  102.5 96  C 102.5 100.76  98.76 104.5  94 104.5  C 89.24 104.5  85.5 100.76  85.5 96  C 85.5 91.24  89.24 87.5  94 87.5  Z " stroke-width="1" stroke="#000000" fill="none" />
  </g>
</svg>