<?xml version="1.0" encoding="utf-8"?>
<svg version="1.1" xmlns:xlink="http://www.w3.org/1999/xlink" width="13px" height="12px" xmlns="http://www.w3.org/2000/svg">
  <g transform="matrix(1 0 0 1 -778 -108 )">
    <path d="M 7.97265625 7.359375  C 8.65755208333333 6.72716346153846  9 5.96634615384615  9 5.07692307692308  C 9 4.1875  8.65755208333333 3.42668269230769  7.97265625 2.79447115384615  C 7.28776041666667 2.16225961538461  6.46354166666667 1.84615384615385  5.5 1.84615384615385  C 4.53645833333333 1.84615384615385  3.71223958333333 2.16225961538461  3.02734375 2.79447115384615  C 2.34244791666667 3.42668269230769  2 4.1875  2 5.07692307692308  C 2 5.96634615384615  2.34244791666667 6.72716346153846  3.02734375 7.359375  C 3.71223958333333 7.99158653846154  4.53645833333333 8.30769230769231  5.5 8.30769230769231  C 6.46354166666667 8.30769230769231  7.28776041666667 7.99158653846154  7.97265625 7.359375  Z M 12.7109375 10.4278846153846  C 12.9036458333333 10.6057692307692  13 10.8221153846154  13 11.0769230769231  C 13 11.3269230769231  12.9010416666667 11.5432692307692  12.703125 11.7259615384615  C 12.5052083333333 11.9086538461538  12.2708333333333 12  12 12  C 11.71875 12  11.484375 11.9086538461538  11.296875 11.7259615384615  L 8.6171875 9.25961538461539  C 7.68489583333333 9.85576923076923  6.64583333333333 10.1538461538462  5.5 10.1538461538462  C 4.75520833333333 10.1538461538462  4.04296875 10.0204326923077  3.36328125 9.75360576923077  C 2.68359375 9.48677884615385  2.09765625 9.12620192307692  1.60546875 8.671875  C 1.11328125 8.21754807692308  0.72265625 7.67668269230769  0.43359375 7.04927884615385  C 0.14453125 6.421875  0 5.76442307692308  0 5.07692307692308  C 0 4.38942307692307  0.14453125 3.73197115384615  0.43359375 3.10456730769231  C 0.72265625 2.47716346153846  1.11328125 1.93629807692308  1.60546875 1.48197115384615  C 2.09765625 1.02764423076923  2.68359375 0.667067307692307  3.36328125 0.400240384615385  C 4.04296875 0.133413461538461  4.75520833333333 0  5.5 0  C 6.24479166666667 0  6.95703125 0.133413461538461  7.63671875 0.400240384615385  C 8.31640625 0.667067307692307  8.90234375 1.02764423076923  9.39453125 1.48197115384615  C 9.88671875 1.93629807692308  10.27734375 2.47716346153846  10.56640625 3.10456730769231  C 10.85546875 3.73197115384615  11 4.38942307692307  11 5.07692307692308  C 11 6.13461538461538  10.6770833333333 7.09375  10.03125 7.95432692307692  L 12.7109375 10.4278846153846  Z " fill-rule="nonzero" fill="#6e7170" stroke="none" transform="matrix(1 0 0 1 778 108 )" />
  </g>
</svg>