<?xml version="1.0" encoding="utf-8"?>
<svg version="1.1" xmlns:xlink="http://www.w3.org/1999/xlink" width="28px" height="28px" xmlns="http://www.w3.org/2000/svg">
  <g transform="matrix(1 0 0 1 -247 0 )">
    <path d="M 261 1  C 268.28 1  274 6.72  274 14  C 274 21.28  268.28 27  261 27  C 253.72 27  248 21.28  248 14  C 248 6.72  253.72 1  261 1  Z " fill-rule="nonzero" fill="#ffffff" stroke="none" fill-opacity="0" />
    <path d="M 261 1  C 268.28 1  274 6.72  274 14  C 274 21.28  268.28 27  261 27  C 253.72 27  248 21.28  248 14  C 248 6.72  253.72 1  261 1  Z " stroke-width="2" stroke="#9d2449" fill="none" />
  </g>
</svg>