<?xml version="1.0" encoding="utf-8"?>
<svg version="1.1" xmlns:xlink="http://www.w3.org/1999/xlink" width="18px" height="18px" viewBox="808 330  18 18" xmlns="http://www.w3.org/2000/svg">
  <path d="M 808.5 332  A 1.5 1.5 0 0 1 810 330.5 L 824 330.5  A 1.5 1.5 0 0 1 825.5 332 L 825.5 346  A 1.5 1.5 0 0 1 824 347.5 L 810 347.5  A 1.5 1.5 0 0 1 808.5 346 L 808.5 332  Z " fill-rule="nonzero" fill="#ffffff" stroke="none" />
  <path d="M 808.5 332  A 1.5 1.5 0 0 1 810 330.5 L 824 330.5  A 1.5 1.5 0 0 1 825.5 332 L 825.5 346  A 1.5 1.5 0 0 1 824 347.5 L 810 347.5  A 1.5 1.5 0 0 1 808.5 346 L 808.5 332  Z " stroke-width="1" stroke="#0043f0" fill="none" />
</svg>