<?xml version="1.0" encoding="utf-8"?>
<svg version="1.1" xmlns:xlink="http://www.w3.org/1999/xlink" width="18px" height="18px" viewBox="102 197  18 18" xmlns="http://www.w3.org/2000/svg">
  <path d="M 102.5 199  A 1.5 1.5 0 0 1 104 197.5 L 118 197.5  A 1.5 1.5 0 0 1 119.5 199 L 119.5 213  A 1.5 1.5 0 0 1 118 214.5 L 104 214.5  A 1.5 1.5 0 0 1 102.5 213 L 102.5 199  Z " fill-rule="nonzero" fill="#f0f0f0" stroke="none" />
  <path d="M 102.5 199  A 1.5 1.5 0 0 1 104 197.5 L 118 197.5  A 1.5 1.5 0 0 1 119.5 199 L 119.5 213  A 1.5 1.5 0 0 1 118 214.5 L 104 214.5  A 1.5 1.5 0 0 1 102.5 213 L 102.5 199  Z " stroke-width="1" stroke="#0043f0" fill="none" />
</svg>