<?xml version="1.0" encoding="utf-8"?>
<svg version="1.1" xmlns:xlink="http://www.w3.org/1999/xlink" width="18px" height="18px" viewBox="461 197  18 18" xmlns="http://www.w3.org/2000/svg">
  <path d="M 461.5 199  A 1.5 1.5 0 0 1 463 197.5 L 477 197.5  A 1.5 1.5 0 0 1 478.5 199 L 478.5 213  A 1.5 1.5 0 0 1 477 214.5 L 463 214.5  A 1.5 1.5 0 0 1 461.5 213 L 461.5 199  Z " fill-rule="nonzero" fill="#0043f0" stroke="none" />
  <path d="M 461.5 199  A 1.5 1.5 0 0 1 463 197.5 L 477 197.5  A 1.5 1.5 0 0 1 478.5 199 L 478.5 213  A 1.5 1.5 0 0 1 477 214.5 L 463 214.5  A 1.5 1.5 0 0 1 461.5 213 L 461.5 199  Z " stroke-width="1" stroke="#ffffff" fill="none" />
  <path d="M 464.857142857143 206  L 468.714285714286 209.857142857143  " stroke-width="3.85714285714286" stroke="#ffffff" fill="none" />
  <path d="M 468.714285714286 209.857142857143  L 475.142857142857 200.857142857143  " stroke-width="3.85714285714286" stroke="#ffffff" fill="none" />
</svg>