<?xml version="1.0" encoding="utf-8"?>
<svg version="1.1" xmlns:xlink="http://www.w3.org/1999/xlink" width="18px" height="18px" viewBox="102 394  18 18" xmlns="http://www.w3.org/2000/svg">
  <path d="M 102.5 396  A 1.5 1.5 0 0 1 104 394.5 L 118 394.5  A 1.5 1.5 0 0 1 119.5 396 L 119.5 410  A 1.5 1.5 0 0 1 118 411.5 L 104 411.5  A 1.5 1.5 0 0 1 102.5 410 L 102.5 396  Z " fill-rule="nonzero" fill="#0043f0" stroke="none" />
  <path d="M 102.5 396  A 1.5 1.5 0 0 1 104 394.5 L 118 394.5  A 1.5 1.5 0 0 1 119.5 396 L 119.5 410  A 1.5 1.5 0 0 1 118 411.5 L 104 411.5  A 1.5 1.5 0 0 1 102.5 410 L 102.5 396  Z " stroke-width="1" stroke="#ffffff" fill="none" />
  <path d="M 105.857142857143 403  L 109.714285714286 406.857142857143  " stroke-width="3.85714285714286" stroke="#ffffff" fill="none" />
  <path d="M 109.714285714286 406.857142857143  L 116.142857142857 397.857142857143  " stroke-width="3.85714285714286" stroke="#ffffff" fill="none" />
</svg>