<?xml version="1.0" encoding="utf-8"?>
<svg version="1.1" xmlns:xlink="http://www.w3.org/1999/xlink" width="18px" height="18px" viewBox="102 255  18 18" xmlns="http://www.w3.org/2000/svg">
  <path d="M 102.5 257  A 1.5 1.5 0 0 1 104 255.5 L 118 255.5  A 1.5 1.5 0 0 1 119.5 257 L 119.5 271  A 1.5 1.5 0 0 1 118 272.5 L 104 272.5  A 1.5 1.5 0 0 1 102.5 271 L 102.5 257  Z " fill-rule="nonzero" fill="#ffffff" stroke="none" />
  <path d="M 102.5 257  A 1.5 1.5 0 0 1 104 255.5 L 118 255.5  A 1.5 1.5 0 0 1 119.5 257 L 119.5 271  A 1.5 1.5 0 0 1 118 272.5 L 104 272.5  A 1.5 1.5 0 0 1 102.5 271 L 102.5 257  Z " stroke-width="1" stroke="#0043f0" fill="none" />
</svg>