<?xml version="1.0" encoding="utf-8"?>
<svg version="1.1" xmlns:xlink="http://www.w3.org/1999/xlink" width="18px" height="18px" viewBox="808 197  18 18" xmlns="http://www.w3.org/2000/svg">
  <path d="M 808.5 199  A 1.5 1.5 0 0 1 810 197.5 L 824 197.5  A 1.5 1.5 0 0 1 825.5 199 L 825.5 213  A 1.5 1.5 0 0 1 824 214.5 L 810 214.5  A 1.5 1.5 0 0 1 808.5 213 L 808.5 199  Z " fill-rule="nonzero" fill="#f0f0f0" stroke="none" />
  <path d="M 808.5 199  A 1.5 1.5 0 0 1 810 197.5 L 824 197.5  A 1.5 1.5 0 0 1 825.5 199 L 825.5 213  A 1.5 1.5 0 0 1 824 214.5 L 810 214.5  A 1.5 1.5 0 0 1 808.5 213 L 808.5 199  Z " stroke-width="1" stroke="#0043f0" fill="none" />
</svg>