<?xml version="1.0" encoding="utf-8"?>
<svg version="1.1" xmlns:xlink="http://www.w3.org/1999/xlink" width="18px" height="18px" viewBox="808 383  18 18" xmlns="http://www.w3.org/2000/svg">
  <path d="M 808.5 385  A 1.5 1.5 0 0 1 810 383.5 L 824 383.5  A 1.5 1.5 0 0 1 825.5 385 L 825.5 399  A 1.5 1.5 0 0 1 824 400.5 L 810 400.5  A 1.5 1.5 0 0 1 808.5 399 L 808.5 385  Z " fill-rule="nonzero" fill="#f0f0f0" stroke="none" />
  <path d="M 808.5 385  A 1.5 1.5 0 0 1 810 383.5 L 824 383.5  A 1.5 1.5 0 0 1 825.5 385 L 825.5 399  A 1.5 1.5 0 0 1 824 400.5 L 810 400.5  A 1.5 1.5 0 0 1 808.5 399 L 808.5 385  Z " stroke-width="1" stroke="#0043f0" fill="none" />
</svg>