<?xml version="1.0" encoding="utf-8"?>
<svg version="1.1" xmlns:xlink="http://www.w3.org/1999/xlink" width="18px" height="18px" viewBox="461 319  18 18" xmlns="http://www.w3.org/2000/svg">
  <path d="M 461.5 321  A 1.5 1.5 0 0 1 463 319.5 L 477 319.5  A 1.5 1.5 0 0 1 478.5 321 L 478.5 335  A 1.5 1.5 0 0 1 477 336.5 L 463 336.5  A 1.5 1.5 0 0 1 461.5 335 L 461.5 321  Z " fill-rule="nonzero" fill="#f0f0f0" stroke="none" />
  <path d="M 461.5 321  A 1.5 1.5 0 0 1 463 319.5 L 477 319.5  A 1.5 1.5 0 0 1 478.5 321 L 478.5 335  A 1.5 1.5 0 0 1 477 336.5 L 463 336.5  A 1.5 1.5 0 0 1 461.5 335 L 461.5 321  Z " stroke-width="1" stroke="#0043f0" fill="none" />
</svg>