<?xml version="1.0" encoding="utf-8"?>
<svg version="1.1" xmlns:xlink="http://www.w3.org/1999/xlink" width="16px" height="16px" viewBox="20 166  16 16" xmlns="http://www.w3.org/2000/svg">
  <path d="M 28 166  C 32.48 166  36 169.52  36 174  C 36 178.48  32.48 182  28 182  C 23.52 182  20 178.48  20 174  C 20 169.52  23.52 166  28 166  Z " fill-rule="nonzero" fill="#ffffff" stroke="none" />
  <path d="M 28 166.5  C 32.2 166.5  35.5 169.8  35.5 174  C 35.5 178.2  32.2 181.5  28 181.5  C 23.8 181.5  20.5 178.2  20.5 174  C 20.5 169.8  23.8 166.5  28 166.5  Z " stroke-width="1" stroke="#0043f0" fill="none" />
  <path d="M 28 178  C 25.76 178  24 176.24  24 174  C 24 171.76  25.76 170  28 170  C 30.24 170  32 171.76  32 174  C 32 176.24  30.24 178  28 178  " fill-rule="nonzero" fill="#0043f0" stroke="none" />
</svg>