<?xml version="1.0" encoding="utf-8"?>
<svg version="1.1" xmlns:xlink="http://www.w3.org/1999/xlink" width="40px" height="39px" xmlns="http://www.w3.org/2000/svg">
  <g transform="matrix(1 0 0 1 102 -572 )">
    <path d="M -82 610.211810545468  C -89.8 600.764960335673  -101.5 595.096850209796  -101.5 585.65  C -101.5 580.765714285714  -97.6 572.5  -82 572.5  C -66.4 572.5  -62.5 580.765714285714  -62.5 585.65  C -62.5 595.096850209796  -74.2 600.764960335673  -82 610.211810545468  Z " fill-rule="nonzero" fill="#0c231e" stroke="none" />
    <path d="M -82 611  C -90 601.25  -102 595.4  -102 585.65  C -102 580.58  -98 572  -82 572  C -66 572  -62 580.58  -62 585.65  C -62 595.4  -74 601.25  -82 611  Z M -82 609.423621090937  C -74.4 600.279920671346  -63 594.793700419591  -63 585.65  C -63 580.951428571429  -66.8 573  -82 573  C -97.2 573  -101 580.951428571429  -101 585.65  C -101 594.793700419591  -89.6 600.279920671346  -82 609.423621090937  Z " fill-rule="nonzero" fill="#797979" stroke="none" />
  </g>
</svg>