<?xml version="1.0" encoding="utf-8"?>
<svg version="1.1" xmlns:xlink="http://www.w3.org/1999/xlink" width="14px" height="14px" viewBox="801 511  14 14" xmlns="http://www.w3.org/2000/svg">
  <path d="M 801.5 513  A 1.5 1.5 0 0 1 803 511.5 L 813 511.5  A 1.5 1.5 0 0 1 814.5 513 L 814.5 523  A 1.5 1.5 0 0 1 813 524.5 L 803 524.5  A 1.5 1.5 0 0 1 801.5 523 L 801.5 513  Z " fill-rule="nonzero" fill="#f0f0f0" stroke="none" />
  <path d="M 801.5 513  A 1.5 1.5 0 0 1 803 511.5 L 813 511.5  A 1.5 1.5 0 0 1 814.5 513 L 814.5 523  A 1.5 1.5 0 0 1 813 524.5 L 803 524.5  A 1.5 1.5 0 0 1 801.5 523 L 801.5 513  Z " stroke-width="1" stroke="#0043f0" fill="none" />
  <path d="M 804.5 518.5  L 807.5 521.5  " stroke-width="3" stroke="#0043f0" fill="none" />
  <path d="M 807.5 521.5  L 812.5 514.5  " stroke-width="3" stroke="#0043f0" fill="none" />
</svg>