<?xml version="1.0" encoding="utf-8"?>
<svg version="1.1" xmlns:xlink="http://www.w3.org/1999/xlink" width="16px" height="16px" viewBox="19 265  16 16" xmlns="http://www.w3.org/2000/svg">
  <path d="M 27 265  C 31.48 265  35 268.52  35 273  C 35 277.48  31.48 281  27 281  C 22.52 281  19 277.48  19 273  C 19 268.52  22.52 265  27 265  Z " fill-rule="nonzero" fill="#f0f0f0" stroke="none" />
  <path d="M 27 265.5  C 31.2 265.5  34.5 268.8  34.5 273  C 34.5 277.2  31.2 280.5  27 280.5  C 22.8 280.5  19.5 277.2  19.5 273  C 19.5 268.8  22.8 265.5  27 265.5  Z " stroke-width="1" stroke="#0043f0" fill="none" />
  <path d="M 27 277  C 24.76 277  23 275.24  23 273  C 23 270.76  24.76 269  27 269  C 29.24 269  31 270.76  31 273  C 31 275.24  29.24 277  27 277  " fill-rule="nonzero" fill="#0043f0" stroke="none" />
</svg>