<?xml version="1.0" encoding="utf-8"?>
<svg version="1.1" xmlns:xlink="http://www.w3.org/1999/xlink" width="18px" height="18px" viewBox="27 270  18 18" xmlns="http://www.w3.org/2000/svg">
  <path d="M 27.5 272  A 1.5 1.5 0 0 1 29 270.5 L 43 270.5  A 1.5 1.5 0 0 1 44.5 272 L 44.5 286  A 1.5 1.5 0 0 1 43 287.5 L 29 287.5  A 1.5 1.5 0 0 1 27.5 286 L 27.5 272  Z " fill-rule="nonzero" fill="#f0f0f0" stroke="none" />
  <path d="M 27.5 272  A 1.5 1.5 0 0 1 29 270.5 L 43 270.5  A 1.5 1.5 0 0 1 44.5 272 L 44.5 286  A 1.5 1.5 0 0 1 43 287.5 L 29 287.5  A 1.5 1.5 0 0 1 27.5 286 L 27.5 272  Z " stroke-width="1" stroke="#0043f0" fill="none" />
</svg>