<?xml version="1.0" encoding="utf-8"?>
<svg version="1.1" xmlns:xlink="http://www.w3.org/1999/xlink" width="14px" height="14px" viewBox="812 633  14 14" xmlns="http://www.w3.org/2000/svg">
  <path d="M 812.5 635  A 1.5 1.5 0 0 1 814 633.5 L 824 633.5  A 1.5 1.5 0 0 1 825.5 635 L 825.5 645  A 1.5 1.5 0 0 1 824 646.5 L 814 646.5  A 1.5 1.5 0 0 1 812.5 645 L 812.5 635  Z " fill-rule="nonzero" fill="#f0f0f0" stroke="none" />
  <path d="M 812.5 635  A 1.5 1.5 0 0 1 814 633.5 L 824 633.5  A 1.5 1.5 0 0 1 825.5 635 L 825.5 645  A 1.5 1.5 0 0 1 824 646.5 L 814 646.5  A 1.5 1.5 0 0 1 812.5 645 L 812.5 635  Z " stroke-width="1" stroke="#0043f0" fill="none" />
  <path d="M 815.5 640.5  L 818.5 643.5  " stroke-width="3" stroke="#0043f0" fill="none" />
  <path d="M 818.5 643.5  L 823.5 636.5  " stroke-width="3" stroke="#0043f0" fill="none" />
</svg>