<?xml version="1.0" encoding="utf-8"?>
<svg version="1.1" xmlns:xlink="http://www.w3.org/1999/xlink" width="22px" height="22px" xmlns="http://www.w3.org/2000/svg">
  <g transform="matrix(1 0 0 1 -204 2 )">
    <path d="M 12.7044270833333 18.2044270833333  C 12.7903645833333 18.1184895833333  12.8333333333333 18.0086805555556  12.8333333333333 17.875  L 12.8333333333333 15.125  C 12.8333333333333 14.9913194444444  12.7903645833333 14.8815104166667  12.7044270833333 14.7955729166667  C 12.6184895833333 14.7096354166667  12.5086805555556 14.6666666666667  12.375 14.6666666666667  L 9.625 14.6666666666667  C 9.49131944444445 14.6666666666667  9.38151041666667 14.7096354166667  9.29557291666667 14.7955729166667  C 9.20963541666667 14.8815104166667  9.16666666666667 14.9913194444444  9.16666666666667 15.125  L 9.16666666666667 17.875  C 9.16666666666667 18.0086805555556  9.20963541666667 18.1184895833333  9.29557291666667 18.2044270833333  C 9.38151041666667 18.2903645833333  9.49131944444445 18.3333333333333  9.625 18.3333333333333  L 12.375 18.3333333333333  C 12.5086805555556 18.3333333333333  12.6184895833333 18.2903645833333  12.7044270833333 18.2044270833333  Z M 16.3209635416667 9.41015625  C 16.4403211805556 9.05685763888889  16.5 8.67013888888889  16.5 8.25  C 16.5 7.40972222222222  16.2350260416667 6.63151041666667  15.705078125 5.91536458333333  C 15.1751302083333 5.19921875  14.5138888888889 4.64539930555555  13.7213541666667 4.25390625  C 12.9288194444444 3.86241319444444  12.1171875 3.66666666666667  11.2864583333333 3.66666666666667  C 8.96614583333333 3.66666666666667  7.19487847222222 4.68359375  5.97265625 6.71744791666667  C 5.82942708333333 6.94661458333333  5.86762152777778 7.14713541666667  6.08723958333333 7.31901041666667  L 7.97786458333333 8.75130208333333  C 8.04470486111111 8.80859375  8.13541666666667 8.83723958333333  8.25 8.83723958333333  C 8.40277777777778 8.83723958333333  8.52213541666667 8.77994791666667  8.60807291666667 8.66536458333333  C 9.11414930555556 8.01605902777778  9.52473958333333 7.57682291666667  9.83984375 7.34765625  C 10.1644965277778 7.11848958333333  10.5750868055556 7.00390625  11.0716145833333 7.00390625  C 11.5299479166667 7.00390625  11.9381510416667 7.12803819444444  12.2962239583333 7.37630208333333  C 12.654296875 7.62456597222222  12.8333333333333 7.90625  12.8333333333333 8.22135416666667  C 12.8333333333333 8.58420138888889  12.7378472222222 8.87543402777778  12.546875 9.09505208333333  C 12.3559027777778 9.31467013888889  12.03125 9.52951388888889  11.5729166666667 9.73958333333333  C 10.9713541666667 10.0069444444444  10.419921875 10.419921875  9.91861979166667 10.978515625  C 9.41731770833333 11.537109375  9.16666666666667 12.1362847222222  9.16666666666667 12.7760416666667  L 9.16666666666667 13.2916666666667  C 9.16666666666667 13.4253472222222  9.20963541666667 13.53515625  9.29557291666667 13.62109375  C 9.38151041666667 13.70703125  9.49131944444445 13.75  9.625 13.75  L 12.375 13.75  C 12.5086805555556 13.75  12.6184895833333 13.70703125  12.7044270833333 13.62109375  C 12.7903645833333 13.53515625  12.8333333333333 13.4253472222222  12.8333333333333 13.2916666666667  C 12.8333333333333 13.1102430555556  12.9359809027778 12.8739149305556  13.1412760416667 12.5826822916667  C 13.3465711805556 12.2914496527778  13.6067708333333 12.0551215277778  13.921875 11.8736979166667  C 14.2274305555556 11.7018229166667  14.4613715277778 11.5657552083333  14.6236979166667 11.4654947916667  C 14.7860243055556 11.365234375  15.0056423611111 11.1981336805556  15.2825520833333 10.9641927083333  C 15.5594618055556 10.7302517361111  15.7719184027778 10.5010850694444  15.919921875 10.2766927083333  C 16.0679253472222 10.0523003472222  16.2016059027778 9.76345486111111  16.3209635416667 9.41015625  Z M 20.5247395833333 5.478515625  C 21.5082465277778 7.16384548611111  22 9.00434027777778  22 11  C 22 12.9956597222222  21.5082465277778 14.8361545138889  20.5247395833333 16.521484375  C 19.5412326388889 18.2068142361111  18.2068142361111 19.5412326388889  16.521484375 20.5247395833333  C 14.8361545138889 21.5082465277778  12.9956597222222 22  11 22  C 9.00434027777778 22  7.16384548611111 21.5082465277778  5.478515625 20.5247395833333  C 3.79318576388889 19.5412326388889  2.45876736111111 18.2068142361111  1.47526041666667 16.521484375  C 0.491753472222222 14.8361545138889  0 12.9956597222222  0 11  C 0 9.00434027777778  0.491753472222222 7.16384548611111  1.47526041666667 5.478515625  C 2.45876736111111 3.79318576388889  3.79318576388889 2.45876736111111  5.478515625 1.47526041666667  C 7.16384548611111 0.49175347222222  9.00434027777778 0  11 0  C 12.9956597222222 0  14.8361545138889 0.49175347222222  16.521484375 1.47526041666667  C 18.2068142361111 2.45876736111111  19.5412326388889 3.79318576388889  20.5247395833333 5.478515625  Z " fill-rule="nonzero" fill="#000000" stroke="none" transform="matrix(1 0 0 1 204 -2 )" />
  </g>
</svg>