<?xml version="1.0" encoding="utf-8"?>
<svg version="1.1" xmlns:xlink="http://www.w3.org/1999/xlink" width="32px" height="33px" xmlns="http://www.w3.org/2000/svg">
  <g transform="matrix(1 0 0 1 -135 -299 )">
    <path d="M 151 331.184358126386  C 144.8 323.248066539315  135.5 318.486291587072  135.5 310.55  C 135.5 306.445714285714  138.6 299.5  151 299.5  C 163.4 299.5  166.5 306.445714285714  166.5 310.55  C 166.5 318.486291587072  157.2 323.248066539315  151 331.184358126386  Z " fill-rule="nonzero" fill="#0c231e" stroke="none" />
    <path d="M 151 332  C 144.6 323.75  135 318.8  135 310.55  C 135 306.26  138.2 299  151 299  C 163.8 299  167 306.26  167 310.55  C 167 318.8  157.4 323.75  151 332  Z M 151 330.368716252773  C 157 322.74613307863  166 318.172583174143  166 310.55  C 166 306.631428571429  163 300  151 300  C 139 300  136 306.631428571429  136 310.55  C 136 318.172583174143  145 322.74613307863  151 330.368716252773  Z " fill-rule="nonzero" fill="#797979" stroke="none" />
  </g>
</svg>