<?xml version="1.0" encoding="utf-8"?>
<svg version="1.1" xmlns:xlink="http://www.w3.org/1999/xlink" width="26px" height="26px" xmlns="http://www.w3.org/2000/svg">
  <defs>
    <radialGradient cx="12.9999999999999" cy="6.3504757008559E-14" r="40.3441291731754" gradientTransform="matrix(-0.685148292860545 0.728403608441282 -0.43985694359219 -0.413736602225166 21.906927807187 -9.46924690973651 )" gradientUnits="userSpaceOnUse" id="RadialGradient506">
      <stop id="Stop507" stop-color="#ffffff" stop-opacity="0.996078431372549" offset="0" />
      <stop id="Stop508" stop-color="#bf7089" stop-opacity="0.988235294117647" offset="1" />
    </radialGradient>
  </defs>
  <g>
    <path d="M 13.5549424908429 0.0118500612343913  L 13.346858121127 4.88196009109851  C 13.2319043510285 4.87733449231085  13.1162705153748 4.875  13 4.875  C 8.45 4.875  4.875 8.45  4.875 13  C 4.875 17.55  8.45 21.125  13 21.125  C 17.55 21.125  21.125 17.55  21.1249935002765 13  L 26 13  C 26 20.1797017478003  20.1797017478003 26  13 26  C 5.82029825219969 26  0 20.1797017478003  0 13  C 0 5.82029825219969  5.82029825219969 0  13 0  C 13.1850440860613 0  13.3700670804547 0.0039509207701891  13.5549424908429 0.0118500612343913  Z " fill-rule="nonzero" fill="url(#RadialGradient506)" stroke="none" />
  </g>
</svg>