<?xml version="1.0" encoding="utf-8"?>
<svg version="1.1" xmlns:xlink="http://www.w3.org/1999/xlink" width="20px" height="20px" viewBox="123 2207  20 20" xmlns="http://www.w3.org/2000/svg">
  <path d="M 123.5 2209  A 1.5 1.5 0 0 1 125 2207.5 L 141 2207.5  A 1.5 1.5 0 0 1 142.5 2209 L 142.5 2225  A 1.5 1.5 0 0 1 141 2226.5 L 125 2226.5  A 1.5 1.5 0 0 1 123.5 2225 L 123.5 2209  Z " fill-rule="nonzero" fill="#f0f0f0" stroke="none" />
  <path d="M 123.5 2209  A 1.5 1.5 0 0 1 125 2207.5 L 141 2207.5  A 1.5 1.5 0 0 1 142.5 2209 L 142.5 2225  A 1.5 1.5 0 0 1 141 2226.5 L 125 2226.5  A 1.5 1.5 0 0 1 123.5 2225 L 123.5 2209  Z " stroke-width="1" stroke="#0043f0" fill="none" />
  <path d="M 127.285714285714 2217  L 131.571428571429 2221.28571428571  " stroke-width="4.28571428571429" stroke="#0043f0" fill="none" />
  <path d="M 131.571428571429 2221.28571428571  L 138.714285714286 2211.28571428571  " stroke-width="4.28571428571429" stroke="#0043f0" fill="none" />
</svg>