<?xml version="1.0" encoding="utf-8"?>
<svg version="1.1" xmlns:xlink="http://www.w3.org/1999/xlink" width="20px" height="20px" viewBox="132 2207  20 20" xmlns="http://www.w3.org/2000/svg">
  <path d="M 132.5 2209  A 1.5 1.5 0 0 1 134 2207.5 L 150 2207.5  A 1.5 1.5 0 0 1 151.5 2209 L 151.5 2225  A 1.5 1.5 0 0 1 150 2226.5 L 134 2226.5  A 1.5 1.5 0 0 1 132.5 2225 L 132.5 2209  Z " fill-rule="nonzero" fill="#ffffff" stroke="none" />
  <path d="M 132.5 2209  A 1.5 1.5 0 0 1 134 2207.5 L 150 2207.5  A 1.5 1.5 0 0 1 151.5 2209 L 151.5 2225  A 1.5 1.5 0 0 1 150 2226.5 L 134 2226.5  A 1.5 1.5 0 0 1 132.5 2225 L 132.5 2209  Z " stroke-width="1" stroke="#0043f0" fill="none" />
</svg>