<?xml version="1.0" encoding="utf-8"?>
<svg version="1.1" xmlns:xlink="http://www.w3.org/1999/xlink" width="20px" height="20px" viewBox="151 766  20 20" xmlns="http://www.w3.org/2000/svg">
  <path d="M 161 766  C 166.6 766  171 770.4  171 776  C 171 781.6  166.6 786  161 786  C 155.4 786  151 781.6  151 776  C 151 770.4  155.4 766  161 766  Z " fill-rule="nonzero" fill="#f0f0f0" stroke="none" />
  <path d="M 161 766.5  C 166.32 766.5  170.5 770.68  170.5 776  C 170.5 781.32  166.32 785.5  161 785.5  C 155.68 785.5  151.5 781.32  151.5 776  C 151.5 770.68  155.68 766.5  161 766.5  Z " stroke-width="1" stroke="#0043f0" fill="none" />
  <path d="M 161 781  C 158.2 781  156 778.8  156 776  C 156 773.2  158.2 771  161 771  C 163.8 771  166 773.2  166 776  C 166 778.8  163.8 781  161 781  " fill-rule="nonzero" fill="#0043f0" stroke="none" />
</svg>