<?xml version="1.0" encoding="utf-8"?>
<svg version="1.1" xmlns:xlink="http://www.w3.org/1999/xlink" width="20px" height="20px" viewBox="151 803  20 20" xmlns="http://www.w3.org/2000/svg">
  <path d="M 161 803  C 166.6 803  171 807.4  171 813  C 171 818.6  166.6 823  161 823  C 155.4 823  151 818.6  151 813  C 151 807.4  155.4 803  161 803  Z " fill-rule="nonzero" fill="#ffffff" stroke="none" />
  <path d="M 161 803.5  C 166.32 803.5  170.5 807.68  170.5 813  C 170.5 818.32  166.32 822.5  161 822.5  C 155.68 822.5  151.5 818.32  151.5 813  C 151.5 807.68  155.68 803.5  161 803.5  Z " stroke-width="1" stroke="#0043f0" fill="none" />
  <path d="M 161 818  C 158.2 818  156 815.8  156 813  C 156 810.2  158.2 808  161 808  C 163.8 808  166 810.2  166 813  C 166 815.8  163.8 818  161 818  " fill-rule="nonzero" fill="#0043f0" stroke="none" />
</svg>