<?xml version="1.0" encoding="utf-8"?>
<svg version="1.1" xmlns:xlink="http://www.w3.org/1999/xlink" width="1130px" height="70px" xmlns="http://www.w3.org/2000/svg">
  <g>
    <path d="M 2 3  A 1 1 0 0 1 3 2 L 1127 2  A 1 1 0 0 1 1128 3 L 1128 67  A 1 1 0 0 1 1127 68 L 3 68  A 1 1 0 0 1 2 67 L 2 3  Z " fill-rule="nonzero" fill="#f2dede" stroke="none" />
    <path d="M 1 3  A 2 2 0 0 1 3 1 L 1127 1  A 2 2 0 0 1 1129 3 L 1129 67  A 2 2 0 0 1 1127 69 L 3 69  A 2 2 0 0 1 1 67 L 1 3  Z " stroke-width="2" stroke="#d0021b" fill="none" stroke-opacity="0.996078431372549" />
  </g>
</svg>