<?xml version="1.0" encoding="utf-8"?>
<svg version="1.1" xmlns:xlink="http://www.w3.org/1999/xlink" width="116px" height="50px" xmlns="http://www.w3.org/2000/svg">
  <g transform="matrix(1 0 0 1 -420 -181 )">
    <path d="M 421.5 184  A 1.5 1.5 0 0 1 423 182.5 L 533 182.5  A 1.5 1.5 0 0 1 534.5 184 L 534.5 228  A 1.5 1.5 0 0 1 533 229.5 L 423 229.5  A 1.5 1.5 0 0 1 421.5 228 L 421.5 184  Z " fill-rule="nonzero" fill="#ffffff" stroke="none" />
    <path d="M 421 184  A 2 2 0 0 1 423 182 L 533 182  A 2 2 0 0 1 535 184 L 535 228  A 2 2 0 0 1 533 230 L 423 230  A 2 2 0 0 1 421 228 L 421 184  Z " stroke-width="2" stroke="#611232" fill="none" />
  </g>
</svg>